<?xml version="1.0" encoding="utf-8"?>
<!-- Generator: Adobe Illustrator 21.1.0, SVG Export Plug-In . SVG Version: 6.00 Build 0)  -->
<svg version="1.1" id="Layer_1" xmlns="http://www.w3.org/2000/svg" xmlns:xlink="http://www.w3.org/1999/xlink" x="0px" y="0px"
	 viewBox="0 0 612 792" style="enable-background:new 0 0 612 792;" xml:space="preserve">
<style type="text/css">
	.st0{fill:#8C6686;}
</style>
<path class="st0" d="M123.9,437.7c-15.7,0-30.9-2.8-46.6-8.4C29.5,412.2-0.2,371-1,321.9c-0.4-53.5,35.3-93.9,87.1-98.7
	c24.9-1.6,47.8,5.2,62.2,19.2c12,11.2,17.3,26.8,16.9,43.9c-0.4,19.6-13.2,38.8-31.7,49.5c-16.9,10-35.7,10.8-51.8,2.4
	c-7.2-3.6-10-12.4-6.4-20.4c3.6-7.2,12.4-10,20.5-6.4c9.6,4.8,18.5,1.2,23.3-1.6c9.6-5.2,16.1-15.6,16.9-24.8
	c0.4-8.8-1.6-16-7.6-21.6c-8.4-7.6-22.9-12-38.9-10.8c-35.7,3.6-60.2,30.8-59.8,69.1c0.4,36.8,22.1,66.7,58.6,79.5
	c32.9,12,79.5,8.8,108.8-24.8c20.5-24,36.9-65.9,56.2-114.3l6-15.6c12.4-32,25.7-64.7,38.1-97.5c10.8-27.2,21.7-54.7,32.1-81.9
	c-11.2,6.4-24.5,11.2-41.8,14.8c-10.8,2.4-21.7,5.2-26.1,12l-0.4,0.4c-2.4,2.8-3.6,6.4-2.4,10.8c1.2,6,6,12,12.4,14.8
	c7.2,3.6,10,12.4,6.4,20.4c-3.6,7.6-12.4,10-20.5,6.4c-14.5-7.2-24.9-20.4-28.5-35.6c-2.8-13.2,0-25.6,8.4-35.6
	c10-14.4,27.3-19.6,43.8-23.2c26.1-5.2,40.1-13.6,59.8-35.2c7.2-7.2,15.7-7.2,20.9-4c6,2.8,10,9.6,10,17.2v1.6
	c-1.2,9.6-4,19.2-8.8,30.4c-12.4,32-24.9,64.3-38.1,97.1c-12.4,32.8-25.7,64.7-38.1,97.5l-6,15.6c-20.5,51.1-37.7,95.1-61.4,123.1
	C194.9,423,160.4,437.7,123.9,437.7"/>
<path class="st0" d="M338.7-232.1c-0.4,1.2-1.2,2.4-1.6,3.6c0.8-1.6,1.6-3.2,2-4.4C338.7-232.5,338.7-232.1,338.7-232.1
	 M339.5-240.1c0-0.4,0-0.4,0-0.8s0-0.4-0.4-0.8c0,0.4,0,0.4,0.4,0.8C339.5-240.9,339.5-240.5,339.5-240.1
	C339.5-240.5,339.5-240.1,339.5-240.1L339.5-240.1"/>
<path class="st0" d="M339.5-240.9c0-0.4,0-0.4-0.4-0.8C339.1-241.3,339.1-240.9,339.5-240.9C339.5-240.9,339.5-240.5,339.5-240.9
	c0,0.4,0,0.4,0,0.8C339.5-240.5,339.5-240.5,339.5-240.9"/>
<path class="st0" d="M128.9,480 M598.2,296.2c-7.8-0.4-14.4,4.7-14.9,12.1c-2.4,23.2-40.7,38.1-64.4,41.9c-12.1,2-24.4,2.6-37.8,3.7
	c-19.9,1.5-40.5,2.9-60.9,8.9c-73.8,21.7-105.6,94-123.4,146.7c-0.2,2.2-1.7,5.5-3.4,9.5c-4.9,14.3-14.3,39.1-24.5,73.6
	c-12.5,40.5-25.5,88.8-28.2,97.9c-4.3-72.4-5.9-146.3,5.1-218.2c1-6.7,2.2-13.4,3.5-20.1c1.2-5.8,4.3-13,1.7-18.6
	c-4.2-9.1-19.1-10.1-25.2-2.5c-1.6,2-2.4,4.6-3.3,7c-5.3,15.4-16.4,37.9-31.7,45.7c-6.7,3.4-15.2,4.4-21.7,0
	c-6.4-4.3-11.4-10.2-16.7-15.7c-4.3-4.5-12.1-11.6-18.6-6.8c-7.8,5.8-4,18.5-0.2,25.4c5.8,10.5,15.5,19,26.7,23.3
	c9,3.8,20,3.9,29.5,1.8c4.2-0.9,8.2-2.6,13.1-4c4.3-2.1,8.1-4.8,11.6-7.4c-6,69.1-3,147.1,0.6,203.8c0.4,6.5,0.8,13.4,1.9,19.7
	c1.1,8.2,2.3,18.2,5.8,27.2c2.7,8.6,10.8,13.3,19.2,11.4c2.8-0.6,9.2-3.2,10.3-11.5c4.6-13.8,8.4-27.9,12-41.1
	c0.7-3.4,1.6-7.3,2.8-10.2c0.6-0.5,15.3-54,28.7-99.1c10.1-33.4,19.1-58.5,24.2-71.7c1.4-5.1,3.3-8.1,3.9-10.4
	c24.7-74.4,58.1-115.2,104.9-129.4c17.7-4.7,36.1-6.3,55.6-7.7c13.3-1.2,27.2-1.7,40.6-4.4c30.1-5.3,82.8-24.1,87-65.7
	C611,304,605.6,296.8,598.2,296.2"/>
<path class="st0" d="M339.5-240.1C339.5-240.5,339.5-240.5,339.5-240.1C339.5-240.5,339.5-240.1,339.5-240.1L339.5-240.1"/>
</svg>
