<?xml version="1.0" encoding="utf-8"?>
<!-- Generator: Adobe Illustrator 21.1.0, SVG Export Plug-In . SVG Version: 6.00 Build 0)  -->
<svg version="1.1" id="Layer_1" xmlns="http://www.w3.org/2000/svg" xmlns:xlink="http://www.w3.org/1999/xlink" x="0px" y="0px"
	 viewBox="0 0 612 792" style="enable-background:new 0 0 612 792;" xml:space="preserve">
<style type="text/css">
	.st0{fill:#8C6686;}
</style>
<path class="st0" d="M203.2,415.7c-8.8,0-17.4-1.6-26.2-4.7c-26.9-9.7-43.7-32.9-44.1-60.6c-0.2-30.2,19.9-52.9,49.1-55.6
	c14-0.9,26.9,2.9,35.1,10.8c6.8,6.3,9.7,15.1,9.5,24.8c-0.2,11-7.5,21.8-17.9,27.9c-9.5,5.6-20.1,6.1-29.2,1.4
	c-4.1-2-5.7-7-3.6-11.5c2-4.1,7-5.6,11.5-3.6c5.4,2.7,10.4,0.7,13.1-0.9c5.4-2.9,9-8.8,9.5-14c0.2-5-0.9-9-4.3-12.2
	c-4.8-4.3-12.9-6.8-21.9-6.1c-20.1,2-33.9,17.3-33.7,38.9c0.2,20.7,12.4,37.6,33,44.8c18.6,6.8,44.8,5,61.3-14
	c11.5-13.5,20.8-37.1,31.7-64.4l3.4-8.8c7-18,14.5-36.5,21.5-54.9c6.1-15.3,12.2-30.8,18.1-46.2c-6.3,3.6-13.8,6.3-23.5,8.3
	c-6.1,1.4-12.2,2.9-14.7,6.8l-0.2,0.2c-1.4,1.6-2,3.6-1.4,6.1c0.7,3.4,3.4,6.8,7,8.3c4.1,2,5.7,7,3.6,11.5c-2,4.3-7,5.6-11.5,3.6
	c-8.1-4.1-14-11.5-16.1-20c-1.6-7.4,0-14.4,4.8-20c5.7-8.1,15.4-11,24.7-13.1c14.7-2.9,22.6-7.7,33.7-19.8c4.1-4.1,8.8-4.1,11.8-2.3
	c3.4,1.6,5.7,5.4,5.7,9.7v0.9c-0.7,5.4-2.3,10.8-5,17.1c-7,18-14,36.2-21.5,54.7c-7,18.5-14.5,36.5-21.5,54.9l-3.4,8.8
	c-11.5,28.8-21.3,53.6-34.6,69.3C243.2,407.4,223.7,415.7,203.2,415.7"/>
<path class="st0" d="M338.7-232.1c-0.4,1.2-1.2,2.4-1.6,3.6c0.8-1.6,1.6-3.2,2-4.4C338.7-232.5,338.7-232.1,338.7-232.1
	 M339.5-240.1c0-0.4,0-0.4,0-0.8s0-0.4-0.4-0.8c0,0.4,0,0.4,0.4,0.8C339.5-240.9,339.5-240.5,339.5-240.1
	C339.5-240.5,339.5-240.1,339.5-240.1L339.5-240.1"/>
<path class="st0" d="M339.5-240.9c0-0.4,0-0.4-0.4-0.8C339.1-241.3,339.1-240.9,339.5-240.9C339.5-240.9,339.5-240.5,339.5-240.9
	c0,0.4,0,0.4,0,0.8C339.5-240.5,339.5-240.5,339.5-240.9"/>
<path class="st0" d="M206,439.6 M470.4,336c-4.4-0.2-8.1,2.6-8.4,6.8c-1.4,13.1-22.9,21.4-36.3,23.6c-6.8,1.1-13.8,1.4-21.3,2.1
	c-11.2,0.9-22.8,1.6-34.3,5c-41.6,12.2-59.5,53-69.5,82.7c-0.1,1.3-1,3.1-1.9,5.4c-2.7,8-8.1,22-13.8,41.5
	c-7,22.8-14.3,50.1-15.9,55.1c-2.4-40.8-3.3-82.5,2.9-123c0.6-3.8,1.2-7.6,2-11.3c0.7-3.2,2.4-7.3,0.9-10.5
	c-2.4-5.1-10.8-5.7-14.2-1.4c-0.9,1.1-1.4,2.6-1.9,4c-3,8.7-9.2,21.4-17.8,25.8c-3.8,1.9-8.6,2.5-12.2,0c-3.6-2.4-6.5-5.7-9.4-8.9
	c-2.4-2.5-6.8-6.5-10.5-3.8c-4.4,3.3-2.3,10.4-0.1,14.3c3.2,5.9,8.7,10.7,15,13.2c5.1,2.2,11.3,2.2,16.6,1c2.4-0.5,4.6-1.5,7.4-2.3
	c2.4-1.2,4.6-2.7,6.5-4.1c-3.4,38.9-1.7,82.9,0.4,114.8c0.2,3.7,0.5,7.5,1.1,11.1c0.6,4.6,1.3,10.2,3.3,15.4
	c1.5,4.8,6.1,7.5,10.8,6.4c1.6-0.4,5.2-1.8,5.8-6.5c2.6-7.8,4.7-15.7,6.8-23.2c0.4-1.9,0.9-4.1,1.6-5.7c0.3-0.3,8.6-30.4,16.1-55.8
	c5.7-18.8,10.8-32.9,13.6-40.4c0.8-2.9,1.9-4.5,2.2-5.9c13.9-41.9,32.7-64.9,59.1-72.9c10-2.7,20.3-3.5,31.3-4.4
	c7.5-0.7,15.3-1,22.9-2.5c16.9-3,46.7-13.6,49-37C477.6,340.4,474.6,336.3,470.4,336"/>
<path class="st0" d="M339.5-240.1C339.5-240.5,339.5-240.5,339.5-240.1C339.5-240.5,339.5-240.1,339.5-240.1L339.5-240.1"/>
</svg>
