<?xml version="1.0" encoding="utf-8"?>
<!-- Generator: Adobe Illustrator 21.1.0, SVG Export Plug-In . SVG Version: 6.00 Build 0)  -->
<svg version="1.1" id="Layer_1" xmlns="http://www.w3.org/2000/svg" xmlns:xlink="http://www.w3.org/1999/xlink" x="0px" y="0px"
	 viewBox="0 0 612 792" style="enable-background:new 0 0 612 792;" xml:space="preserve">
<style type="text/css">
	.st0{display:none;}
	.st1{display:inline;fill:none;stroke:#000000;stroke-width:0.3258;stroke-miterlimit:10;}
	.st2{fill:#8C6686;}
	.st3{fill:#FFFFFF;}
</style>
<g id="Layer_2" class="st0">
	<rect x="-50.6" y="310" class="st1" width="2665.5" height="199.8"/>
</g>
<circle class="st2" cx="316" cy="396" r="235.2"/>
<g>
	<path class="st3" d="M290,384.3c0,0,25.7-2.1,25.7-32c0-30.3-21.1-44.6-47.6-44.6h-49.3h-1.3h-37.1v168.5h37.1h1.3h48.9
		c0,0,53.5,1.7,53.5-49.7C321.5,426.4,323.7,384.3,290,384.3z M261.7,337.5h6.3c0,0,11.8,0,11.8,17.7s-7.2,20.2-14.7,20.2h-46.3
		v-37.5h43L261.7,337.5L261.7,337.5z M265.5,446.2h-46.7v-45.1h48.9c0,0,17.7-0.4,17.7,23.2C285.7,443.6,272.3,445.7,265.5,446.2z"
		/>
	<path class="st3" d="M392.7,350.6c-64.9,0-64.9,64.9-64.9,64.9s-4.6,64.4,64.9,64.4c0,0,57.7,3.4,57.7-44.6h-29.5
		c0,0,0.8,18.1-27,18.1c0,0-29.5,2.1-29.5-29.5h87.2C451.3,423.4,461,350.6,392.7,350.6z M363.7,401.1c0,0,3.8-26.1,29.5-26.1
		c26.1,0,25.7,26.1,25.7,26.1H363.7z"/>
	<rect x="356.5" y="317.3" class="st3" width="69.5" height="20.6"/>
</g>
</svg>
