<?xml version="1.0" encoding="utf-8"?>
<!-- Generator: Adobe Illustrator 21.1.0, SVG Export Plug-In . SVG Version: 6.00 Build 0)  -->
<svg version="1.1" id="Layer_1" xmlns="http://www.w3.org/2000/svg" xmlns:xlink="http://www.w3.org/1999/xlink" x="0px" y="0px"
	 viewBox="0 0 612 792" style="enable-background:new 0 0 612 792;" xml:space="preserve">
<style type="text/css">
	.st0{display:none;}
	.st1{display:inline;fill:none;stroke:#000000;stroke-width:0.3258;stroke-miterlimit:10;}
	.st2{fill:#C1B4D3;}
	.st3{opacity:0.9;fill:#FFFFFF;enable-background:new    ;}
</style>
<g id="Layer_2" class="st0">
	<rect x="-50.6" y="310" class="st1" width="2665.5" height="199.8"/>
</g>
<circle class="st2" cx="316.1" cy="410.6" r="235.2"/>
<g>
	<path class="st3" d="M284.8,495.7c-0.1-1.4-0.2-2.5-0.2-3.6c0.4-42.9,0.6-85.6,0.8-128.5c0-3.3,1.2-4.3,4.3-4.3c13,0.1,26,0.1,39,0
		c3.1,0,4.3,1,4.1,4.1c-0.2,3,0,6.1,0,10.1c2-1.2,3.3-1.8,4.5-2.5c10.4-6.9,21.3-12.8,33.8-14.4c11.7-1.6,23.4-1.1,34.3,3.6
		c15.2,6.5,22.9,18.5,25.2,34.3c0.6,4,0.8,8.2,0.8,12.2c-0.1,28.5-0.5,57-0.7,85.5c0,1.1-0.1,2.2-0.2,3.5c-1.6,0.1-2.9,0.4-4.3,0.4
		c-12.6,0-25.3,0-37.9,0c-4.8,0-4.8-0.1-4.8-4.8c0.2-20.7,0.5-41.4,0.5-62c0-7-0.5-14-1.3-20.8c-1.2-10.6-6.9-15.7-17.5-16.6
		c-10.2-0.8-19.7,1.2-29,5.8c-2.8,1.3-3.7,3-3.7,6.1c-0.1,29-0.4,57.9-0.6,86.9c0,1.6,0,3.1,0,5.1
		C316,495.7,300.6,495.7,284.8,495.7z"/>
	<path class="st3" d="M254.4,495.7c-15.7,0-31.1,0-47.1,0c0-1.7,0-3.1,0-4.6c0.4-41.9,0.6-83.9,1-125.8c0-5.9,0.1-6,5.9-6
		c12.4,0,24.8,0.1,37.1-0.1c3.5,0,4.5,1.1,4.5,4.6c-0.5,42.6-0.8,85.4-1.2,128C254.6,493.1,254.4,494.3,254.4,495.7z"/>
	<path class="st3" d="M258.3,320c-0.1,14.3-11.8,25.8-26.1,25.5c-14-0.2-25.6-12-25.4-26C207,305.2,218.6,294,233,294
		C247.1,294.2,258.4,305.7,258.3,320z"/>
</g>
</svg>
