<?xml version="1.0" encoding="utf-8"?>
<!-- Generator: Adobe Illustrator 20.1.0, SVG Export Plug-In . SVG Version: 6.00 Build 0)  -->
<svg version="1.1" id="Layer_1" xmlns="http://www.w3.org/2000/svg" xmlns:xlink="http://www.w3.org/1999/xlink" x="0px" y="0px"
	 viewBox="0 0 50 50" style="enable-background:new 0 0 50 50;" xml:space="preserve">
<style type="text/css">
	.st0{display:none;}
	.st1{fill:#8C6786;}
	.st2{opacity:0.9;fill:#FFFFFF;enable-background:new    ;}
</style>
<g id="iNISAz_1_" class="st0">
	
		<image style="display:inline;overflow:visible;" width="430" height="430" id="iNISAz_2_" xlink:href="317E434D2485A51F.png"  transform="matrix(0.1015 0 0 0.1015 3.5906 2.4441)">
	</image>
</g>
<circle class="st1" cx="25" cy="25" r="24.6"/>
<g>
	<path class="st2" d="M21.7,33.9c0-0.1,0-0.3,0-0.4c0-4.5,0.1-9,0.1-13.5c0-0.3,0.1-0.5,0.5-0.5c1.4,0,2.7,0,4.1,0
		c0.3,0,0.5,0.1,0.4,0.4c0,0.3,0,0.6,0,1.1c0.2-0.1,0.3-0.2,0.5-0.3c1.1-0.7,2.2-1.3,3.5-1.5c1.2-0.2,2.5-0.1,3.6,0.4
		c1.6,0.7,2.4,1.9,2.6,3.6c0.1,0.4,0.1,0.9,0.1,1.3c0,3-0.1,6-0.1,9c0,0.1,0,0.2,0,0.4c-0.2,0-0.3,0-0.5,0c-1.3,0-2.7,0-4,0
		c-0.5,0-0.5,0-0.5-0.5c0-2.2,0.1-4.3,0.1-6.5c0-0.7-0.1-1.5-0.1-2.2c-0.1-1.1-0.7-1.6-1.8-1.7c-1.1-0.1-2.1,0.1-3,0.6
		c-0.3,0.1-0.4,0.3-0.4,0.6c0,3,0,6.1-0.1,9.1c0,0.2,0,0.3,0,0.5C25,33.9,23.4,33.9,21.7,33.9z"/>
	<path class="st2" d="M18.5,33.9c-1.6,0-3.3,0-4.9,0c0-0.2,0-0.3,0-0.5c0-4.4,0.1-8.8,0.1-13.2c0-0.6,0-0.6,0.6-0.6
		c1.3,0,2.6,0,3.9,0c0.4,0,0.5,0.1,0.5,0.5c-0.1,4.5-0.1,8.9-0.1,13.4C18.6,33.6,18.5,33.8,18.5,33.9z"/>
	<path class="st2" d="M18.9,15.5c0,1.5-1.2,2.7-2.7,2.7c-1.5,0-2.7-1.3-2.7-2.7c0-1.5,1.2-2.7,2.7-2.7C17.8,12.8,19,14,18.9,15.5z"
		/>
</g>
</svg>
