<?xml version="1.0" encoding="utf-8"?>
<!-- Generator: Adobe Illustrator 21.0.2, SVG Export Plug-In . SVG Version: 6.00 Build 0)  -->
<!DOCTYPE svg PUBLIC "-//W3C//DTD SVG 1.1//EN" "http://www.w3.org/Graphics/SVG/1.1/DTD/svg11.dtd">
<svg version="1.1" xmlns="http://www.w3.org/2000/svg" xmlns:xlink="http://www.w3.org/1999/xlink" x="0px" y="0px" width="576px"
	 height="576px" viewBox="0 0 576 576" style="enable-background:new 0 0 576 576;" xml:space="preserve">
<style type="text/css">
	.st0{fill:#FFFFFF;}
	.st1{fill:#240E16;}
	.st2{fill:#313B44;}
	.st3{fill:#424F59;}
	.st4{fill:#F4D49D;}
	.st5{fill:#5E5F5F;}
	.st6{fill:#AEADAD;}
	.st7{fill:#CCE5E5;}
	.st8{fill:#371220;}
	.st9{fill:#FAE1BD;}
	.st10{fill:#52375C;}
	.st11{opacity:0.3;fill:#F6C19A;}
	.st12{fill:#FCCD9A;}
	.st13{opacity:0.46;fill:#F6C19A;}
	.st14{fill:#E6A5B9;}
	.st15{fill:#FCFCFB;}
	.st16{fill:#5F4219;}
	.st17{opacity:0.6;fill:#FFFFFF;}
	.st18{fill:#AF9872;}
	.st19{fill:#E9C3A7;}
	.st20{fill:#CD906E;}
	.st21{fill:#F2DE7D;}
	.st22{fill:#CCB483;}
	.st23{fill:#D7C664;}
	.st24{fill:none;stroke:#ECE4D6;stroke-width:1.0222;stroke-miterlimit:10;}
	.st25{fill:#B79D71;}
	.st26{fill:#442433;}
	.st27{fill:#604F35;}
	.st28{fill:#CC9F81;}
	.st29{fill:#DBAE8E;}
	.st30{opacity:0.4;fill:#F3E1D3;}
	.st31{fill:#AF843D;}
	.st32{fill:#2B763A;}
	.st33{fill:#553716;}
	.st34{fill:#FFFBFD;}
	.st35{fill:#DD89BA;}
	.st36{fill:none;stroke:#ECE4D6;stroke-width:1.3619;stroke-miterlimit:10;}
	.st37{fill:#C4AB7E;}
	.st38{opacity:0.27;fill:url(#SVGID_1_);}
	.st39{opacity:0.27;fill:url(#SVGID_2_);}
	.st40{opacity:0.12;fill:url(#SVGID_3_);}
	.st41{opacity:0.12;fill:url(#SVGID_4_);}
</style>
<g id="Brunette">
	<g>
		<g>
			<polygon class="st0" points="349.1,74.6 397.1,74.9 389.1,90.2 394.4,97.3 399.6,114.6 339.6,112.9 			"/>
		</g>
		<path class="st0" d="M410,208.4c0.6,0.5,1.4,6.8,1.7,7.6c11.4,28.4,13.8,64.9,3.7,94.4c-6.8,19.9-15,41.2-29.4,54.9
			c-0.8,0.7-1.6,1.6-1.8,2.7c-0.1,0.9,0.1,1.8,0.4,2.6c18,55,36,109.9,54.1,164.9c-4.1,1.7-8.2,3.4-12.3,5.1
			c-14.3-48.3-28.6-96.7-42.9-145c-2.7-9.1-5.4-18.4-6.3-28c-0.9-9.5,0-19.1,1-28.7c1.8-18.8,3.7-37.6,5.5-56.4
			c1-10.2,2-20.4,3-30.5c-1.5-0.1-3.1-0.2-4.6-0.3c0.7,0-3.6,50.3-4,54.8c-1.6,18.4-3.2,36.8-3.1,55.3c0,4.6,0.1,9.2,0.3,13.8
			c0.2,3.7,1.1,6.1,1.9,9.5c2.3,8.9,3.8,18.2,5.7,27.2c3.8,18.4,7.7,36.7,11.5,55.1c4.9,23.3,9.8,46.6,14.7,69.9c-3.5,0-7,0-10.5,0
			c-9.9-51-19.7-102-29.6-153c-1.3-6.9-2.7-13.9-5-20.5c-2.1-6-5-11.5-7.5-17.2c-18.2-41.6-17.4-97.5,3.1-137.6"/>
		<path class="st0" d="M438.3,530.2l-22.9-67.3l-13-0.5l22.1,72.4l2.2,7.3c0,0.1,0.1,0.2,0.1,0.2c3.3,8.9,9.4,22.9,16.8,26.7
			c0,0,6-8.9-5.1-38.4C438.4,530.5,438.3,530.3,438.3,530.2z"/>
		<path class="st0" d="M408.8,531.5L396,466.8l-13.4-0.2l13.8,65.2l0.6,2.6l1.2,5.1c0,0-11.3,22.2-27.5,20.1c0,0,19.3,8.7,34.2-13.3
			l-1.3,11.6l10.8,0.2"/>
		<path class="st0" d="M352,227.3c0,0,22.8,2.4,22.6-18.1h-2.1c0,0-2.2,17.5-20.1,16.9L352,227.3z"/>
		<path class="st0" d="M415.4,226.7c0,0-22.8,2.4-22.6-18.1h2.1c0,0,2.2,17.5,20.1,16.9L415.4,226.7z"/>
		<g>
			<path class="st0" d="M461.4,153.3c0.1,3.3-25.8,55.2-25.8,55.2s-1.9,6.5-16.8,4.6c0,0-4.2,13.8-9.6,15.1l7.9-15.8
				c0,0-11.9,14.7-18.7,16.2c0,0,15.7-15.7,16.7-17.3c0,0-15.3,10.8-20.9,9.4c0,0,19.6-12.3,23.2-12.6c3.6-0.3,13.3-1.6,13.3-1.6
				l19.8-52.4L406,130l0.4,7.2c3,2.1,5.2,6.9,5.2,12.4c0,4.8-1.6,9-3.9,11.4l2.4,47.4l-50.4,0.6c-0.2,0-1.7-8.1-1.9-9.1
				c-1.4-8.8-3.1-17.7-5.6-26.3c-2.2-7.6-5.9-15.9-11.1-22.2c-4.9-5.9-10.5-11.5-15.3-17.3l-44.4,49.6l49.5,51.4
				c0,0,12.5-2.8,17.1-4.1c4.6-1.2,34.6,4.1,34.6,4.1c-6.2,4.1-30.3-1.4-30.3-1.4c2,1.5,28.9,12.5,28.9,12.5
				c-8.9,1.3-30.2-10-30.8-10.3l17.3,14.6c-7.3,0.8-19.1-13.1-19.1-13.1c-17.5,8.8-23,2.2-23,2.2s-56.9-48.1-58.3-51.9
				c-1.4-3.8,46.1-63.6,49.5-70.7c3.4-7.1,24.7-12.6,37.1-12.4c12.4,0.2,15.3-18.5,15.3-18.5l-1.4-1.2l9.5-0.8l1.5,17.4
				c3.1-0.1,18.1,7.4,26.1,11.5v0.1c0.2,0.1,0.4,0.2,0.6,0.4C410.9,117.1,461.3,150.1,461.4,153.3z"/>
			<g>
				<path class="st0" d="M411.1,210.9L411.1,210.9C411.1,210.9,411,210.9,411.1,210.9L411.1,210.9z"/>
				<path class="st0" d="M405.7,113.4c-0.2-0.1-0.4-0.2-0.6-0.4V113c-8-4.1-22.9-11.7-26.1-11.5L377.5,84l-9.5,0.8l-0.2,1.3
					c0,0-1.4,18.5-13.8,18.3c-12.4-0.2-33.6,5.2-37.1,12.4c-3.4,7.2-50.9,66.9-49.5,70.7c1.3,3.6,52.9,47.3,57.9,51.5v-9.8l-44-45.7
					l44.4-49.6c4.8,5.8,10.3,11.4,15.3,17.3c5.2,6.3,9,14.6,11.1,22.2c2.5,8.6,4.2,17.5,5.6,26.3c0.2,1.1,1.3,9.8,1.6,9.8l50.9-0.6
					l-2.7-48c2.4-2.4,3.9-6.6,3.9-11.4c0-5.6-2.1-10.4-5.2-12.4l-0.4-7.2l44.4,24.2l-17.4,46.1h6.6c7.3-14.8,21.8-44.5,21.7-46.9
					C461.3,150,410.9,117,405.7,113.4z"/>
			</g>
		</g>
		<rect x="383.7" y="214.6" class="st0" width="2.8" height="21.5"/>
		<circle class="st0" cx="385.2" cy="213.8" r="2.1"/>
		<path class="st0" d="M373.5,126.3C373.5,126.3,373.5,126.3,373.5,126.3c-8.5,0-14.5-21.8-14.7-22.7l1.2-0.6
			c1.7,6.1,7.4,22,13.5,22h0c2.9,0,7.5-3.8,12.3-21.3l1.2,0.5C383,119,378.5,126.3,373.5,126.3z"/>
		<ellipse class="st0" cx="373.5" cy="125.6" rx="1.1" ry="2.2"/>
		<path class="st0" d="M345.3,104.4c0,0-22.6,4.5-25.9,8.9c-3.3,4.4-57.5,72.8-53.8,75.9c3.7,3.1,41.6,38.6,41.6,38.6l13.5-13.6
			l-29.9-25.9l40.1-47.1l16.3,26.5l2.8,43.6l19.6-9l-5.5-44.9l-10.7-30.7L345.3,104.4z"/>
		<path class="st0" d="M464.3,151.7l-16.9,40.2l-11.2-6c0,0,8.9-25.1,8.2-27.6S412,137,412,137l-1,28.7l12.4,36.5l-17.2,3.5
			l-23.7-46.3l4.1-55.4c0,0,25.2-1,35.8,11L464.3,151.7z"/>
		<path class="st0" d="M401.2,22.9c-5.8-7.7-15.1-12-23.5-9.4c-1.3,0.4-2.6,0.9-3.9,0.8c-1.6-0.2-3-1.3-4.4-2.2
			c-10.2-6.9-24-4.3-32.8,5c-8.8,9.3-12.6,24.3-10.8,38.1c1.4,10.6,5.6,20.3,8.6,30.3c0.8,2.8,1.6,5.7,1.1,8.5
			c-0.4,2.9-2.4,5.6-4.9,5.6c-2.5,0-4.4-3.9-2.8-6.1c-2.9,1.8-3.2,7.1-0.9,9.8c2.3,2.7,6.2,2.8,8.9,0.7c2.7-2.1,4.3-5.8,4.7-9.6
			c0.4-3.8-0.1-7.6-0.8-11.4c-0.7-3.7-1.6-7.4-1.9-11.3c5.9,8.3,7.1,21,2.8,30.6c-1.4,3.1-3.3,6-5.9,7.7c-2.6,1.7-6,1.9-8.5,0.1
			c1.6,3.5,4.9,5.8,8.3,6.3c3.4,0.5,6.8-0.5,9.8-2.3c5.9-3.6,10.4-10.2,12.5-17.7c1.4-5.1,1.8-10.7,1.2-16.1
			c-0.3-2.7-0.9-5.3-1.6-7.9c-0.8-2.5-1.8-4.8-2.5-7.3c-1.3-4.7-2.3-9.6-2.3-14.6c0.1-5.6,1.9-10.9,6.4-13.4c1.9-1.1,4-1.5,6-1.7
			c1.4-0.3,2.9-0.3,4.5,0.3c0.6,0.2,2.5-1.4,2.5-2c0,1,0,2-0.1,3c4.6-3.6,11.1-3.2,15.6,0.4c4.6,3.6,7.3,10.2,7.4,16.8
			c0.1,10.5-5.8,19.7-7.8,29.9c-0.6,3.1-0.9,6.5,0,9.5c0.9,3,3,5.7,5.7,6.1c2.7,0.4,5.6-2.1,5.7-5.3c-1.9,0.7-4.3,1.2-5.6-0.5
			c-1.6-2-0.5-5.4,1-7.6c3-4.6,7.1-8.2,10-12.8c3.9-6.1,5.8-13.9,6.1-21.6C409.4,41.4,406.9,30.7,401.2,22.9z"/>
	</g>
	<g>
		<g>
			<polygon class="st1" points="349.1,74.6 397.1,74.9 389.1,90.2 394.4,97.3 399.6,114.6 339.6,112.9 			"/>
		</g>
		<path class="st2" d="M410,208.4c0.6,0.5,1.4,6.8,1.7,7.6c11.4,28.4,13.8,64.9,3.7,94.4c-6.8,19.9-15,41.2-29.4,54.9
			c-0.8,0.7-1.6,1.6-1.8,2.7c-0.1,0.9,0.1,1.8,0.4,2.6c18,55,36,109.9,54.1,164.9c-4.1,1.7-8.2,3.4-12.3,5.1
			c-14.3-48.3-28.6-96.7-42.9-145c-2.7-9.1-5.4-18.4-6.3-28c-0.9-9.5,0-19.1,1-28.7c1.8-18.8,3.7-37.6,5.5-56.4
			c1-10.2,2-20.4,3-30.5c-1.5-0.1-3.1-0.2-4.6-0.3c0.7,0-3.6,50.3-4,54.8c-1.6,18.4-3.2,36.8-3.1,55.3c0,4.6,0.1,9.2,0.3,13.8
			c0.2,3.7,1.1,6.1,1.9,9.5c2.3,8.9,3.8,18.2,5.7,27.2c3.8,18.4,7.7,36.7,11.5,55.1c4.9,23.3,9.8,46.6,14.7,69.9c-3.5,0-7,0-10.5,0
			c-9.9-51-19.7-102-29.6-153c-1.3-6.9-2.7-13.9-5-20.5c-2.1-6-5-11.5-7.5-17.2c-18.2-41.6-17.4-97.5,3.1-137.6"/>
		<path d="M438.3,530.2l-22.9-67.3l-13-0.5l22.1,72.4l2.2,7.3c0,0.1,0.1,0.2,0.1,0.2c3.3,8.9,9.4,22.9,16.8,26.7c0,0,6-8.9-5.1-38.4
			C438.4,530.5,438.3,530.3,438.3,530.2z"/>
		<path d="M408.8,531.5L396,466.8l-13.4-0.2l13.8,65.2l0.6,2.6l1.2,5.1c0,0-11.3,22.2-27.5,20.1c0,0,19.3,8.7,34.2-13.3l-1.3,11.6
			l10.8,0.2"/>
		<path class="st3" d="M352,227.3c0,0,22.8,2.4,22.6-18.1h-2.1c0,0-2.2,17.5-20.1,16.9L352,227.3z"/>
		<path class="st3" d="M415.4,226.7c0,0-22.8,2.4-22.6-18.1h2.1c0,0,2.2,17.5,20.1,16.9L415.4,226.7z"/>
		<g>
			<path class="st4" d="M461.4,153.3c0.1,3.3-25.8,55.2-25.8,55.2s-1.9,6.5-16.8,4.6c0,0-4.2,13.8-9.6,15.1l7.9-15.8
				c0,0-11.9,14.7-18.7,16.2c0,0,15.7-15.7,16.7-17.3c0,0-15.3,10.8-20.9,9.4c0,0,19.6-12.3,23.2-12.6c3.6-0.3,13.3-1.6,13.3-1.6
				l19.8-52.4L406,130l0.4,7.2c3,2.1,5.2,6.9,5.2,12.4c0,4.8-1.6,9-3.9,11.4l2.4,47.4l-50.4,0.6c-0.2,0-1.7-8.1-1.9-9.1
				c-1.4-8.8-3.1-17.7-5.6-26.3c-2.2-7.6-5.9-15.9-11.1-22.2c-4.9-5.9-10.5-11.5-15.3-17.3l-44.4,49.6l49.5,51.4
				c0,0,12.5-2.8,17.1-4.1c4.6-1.2,34.6,4.1,34.6,4.1c-6.2,4.1-30.3-1.4-30.3-1.4c2,1.5,28.9,12.5,28.9,12.5
				c-8.9,1.3-30.2-10-30.8-10.3l17.3,14.6c-7.3,0.8-19.1-13.1-19.1-13.1c-17.5,8.8-23,2.2-23,2.2s-56.9-48.1-58.3-51.9
				c-1.4-3.8,46.1-63.6,49.5-70.7c3.4-7.1,24.7-12.6,37.1-12.4c12.4,0.2,15.3-18.5,15.3-18.5l-1.4-1.2l9.5-0.8l1.5,17.4
				c3.1-0.1,18.1,7.4,26.1,11.5v0.1c0.2,0.1,0.4,0.2,0.6,0.4C410.9,117.1,461.3,150.1,461.4,153.3z"/>
			<g>
				<path class="st5" d="M411.1,210.9L411.1,210.9C411.1,210.9,411,210.9,411.1,210.9L411.1,210.9z"/>
				<path class="st5" d="M405.7,113.4c-0.2-0.1-0.4-0.2-0.6-0.4V113c-8-4.1-22.9-11.7-26.1-11.5L377.5,84l-9.5,0.8l-0.2,1.3
					c0,0-1.4,18.5-13.8,18.3c-12.4-0.2-33.6,5.2-37.1,12.4c-3.4,7.2-50.9,66.9-49.5,70.7c1.3,3.6,52.9,47.3,57.9,51.5v-9.8l-44-45.7
					l44.4-49.6c4.8,5.8,10.3,11.4,15.3,17.3c5.2,6.3,9,14.6,11.1,22.2c2.5,8.6,4.2,17.5,5.6,26.3c0.2,1.1,1.3,9.8,1.6,9.8l50.9-0.6
					l-2.7-48c2.4-2.4,3.9-6.6,3.9-11.4c0-5.6-2.1-10.4-5.2-12.4l-0.4-7.2l44.4,24.2l-17.4,46.1h6.6c7.3-14.8,21.8-44.5,21.7-46.9
					C461.3,150,410.9,117,405.7,113.4z"/>
			</g>
		</g>
		<rect x="383.7" y="214.6" class="st3" width="2.8" height="21.5"/>
		<circle class="st3" cx="385.2" cy="213.8" r="2.1"/>
		<path class="st6" d="M373.5,126.3C373.5,126.3,373.5,126.3,373.5,126.3c-8.5,0-14.5-21.8-14.7-22.7l1.2-0.6
			c1.7,6.1,7.4,22,13.5,22h0c2.9,0,7.5-3.8,12.3-21.3l1.2,0.5C383,119,378.5,126.3,373.5,126.3z"/>
		<ellipse class="st7" cx="373.5" cy="125.6" rx="1.1" ry="2.2"/>
		<path d="M345.3,104.4c0,0-22.6,4.5-25.9,8.9c-3.3,4.4-57.5,72.8-53.8,75.9c3.7,3.1,41.6,38.6,41.6,38.6l13.5-13.6l-29.9-25.9
			l40.1-47.1l16.3,26.5l2.8,43.6l19.6-9l-5.5-44.9l-10.7-30.7L345.3,104.4z"/>
		<path d="M464.3,151.7l-16.9,40.2l-11.2-6c0,0,8.9-25.1,8.2-27.6S412,137,412,137l-1,28.7l12.4,36.5l-17.2,3.5l-23.7-46.3l4.1-55.4
			c0,0,25.2-1,35.8,11L464.3,151.7z"/>
		<path class="st8" d="M401.2,22.9c-5.8-7.7-15.1-12-23.5-9.4c-1.3,0.4-2.6,0.9-3.9,0.8c-1.6-0.2-3-1.3-4.4-2.2
			c-10.2-6.9-24-4.3-32.8,5c-8.8,9.3-12.6,24.3-10.8,38.1c1.4,10.6,5.6,20.3,8.6,30.3c0.8,2.8,1.6,5.7,1.1,8.5
			c-0.4,2.9-2.4,5.6-4.9,5.6c-2.5,0-4.4-3.9-2.8-6.1c-2.9,1.8-3.2,7.1-0.9,9.8c2.3,2.7,6.2,2.8,8.9,0.7c2.7-2.1,4.3-5.8,4.7-9.6
			c0.4-3.8-0.1-7.6-0.8-11.4c-0.7-3.7-1.6-7.4-1.9-11.3c5.9,8.3,7.1,21,2.8,30.6c-1.4,3.1-3.3,6-5.9,7.7c-2.6,1.7-6,1.9-8.5,0.1
			c1.6,3.5,4.9,5.8,8.3,6.3c3.4,0.5,6.8-0.5,9.8-2.3c5.9-3.6,10.4-10.2,12.5-17.7c1.4-5.1,1.8-10.7,1.2-16.1
			c-0.3-2.7-0.9-5.3-1.6-7.9c-0.8-2.5-1.8-4.8-2.5-7.3c-1.3-4.7-2.3-9.6-2.3-14.6c0.1-5.6,1.9-10.9,6.4-13.4c1.9-1.1,4-1.5,6-1.7
			c1.4-0.3,2.9-0.3,4.5,0.3c0.6,0.2,2.5-1.4,2.5-2c0,1,0,2-0.1,3c4.6-3.6,11.1-3.2,15.6,0.4c4.6,3.6,7.3,10.2,7.4,16.8
			c0.1,10.5-5.8,19.7-7.8,29.9c-0.6,3.1-0.9,6.5,0,9.5c0.9,3,3,5.7,5.7,6.1c2.7,0.4,5.6-2.1,5.7-5.3c-1.9,0.7-4.3,1.2-5.6-0.5
			c-1.6-2-0.5-5.4,1-7.6c3-4.6,7.1-8.2,10-12.8c3.9-6.1,5.8-13.9,6.1-21.6C409.4,41.4,406.9,30.7,401.2,22.9z"/>
	</g>
</g>
<g id="Brunette_Face">
	<path class="st9" d="M370.5,22.2c0,0-24.4-4.1-21.2,29.4c0,0-0.2,21.1,3.3,25.4s3.4,8.5,17.9,13.1c0,0,11,3,21.1-14.5
		c0,0,3.5-8.3,2.6-22.9C393.3,38.1,393.6,23,370.5,22.2z"/>
	<path class="st10" d="M368.9,49.8c-1-2.9-4.1-4.1-7-4.4c-2.8-0.2-6.4-0.1-8.2,2.3c-0.2,0.3-0.4,0.6-0.6,0.9
		c-0.7,1.3,0.8,0.4,1.3,0.1c1.1-0.7,1.9-1.4,3.2-1.6c1.3-0.2,2.6-0.1,3.9,0.3c1.7,0.5,3.1,1.4,4.6,2.4c0.5,0.3,1,0.8,1.6,0.8
		C368.1,50.8,369.1,50.4,368.9,49.8z"/>
	<path class="st10" d="M376.1,49.2c0-0.9,1.3-1.7,2.1-2.2c3.1-1.9,7.6-2,11.2-1.2c1.8,0.4,2.9,1.4,3.6,2.7c0,0.1,0.1,0.1,0,0.2
		c-0.1,0.2-0.4,0.1-0.5,0c-0.8-0.4-1.6-0.7-2.4-1.2c-1-0.7-2.1-0.9-3.4-0.8c-2.8,0.3-5.4,1.1-7.7,2.4c-0.5,0.3-0.9,0.6-1.5,0.7
		c-0.6,0.1-1.2-0.1-1.4-0.5C376.1,49.3,376.1,49.3,376.1,49.2z"/>
	<ellipse class="st11" cx="372.1" cy="83.9" rx="4.9" ry="1.2"/>
	<path class="st12" d="M388.2,55.7c0,0-2.8,2.3-10.6,1.1C377.6,56.8,385.2,59.4,388.2,55.7z"/>
	<path class="st12" d="M356.4,56c0,0,2.9,2.4,11.2,1.2C367.6,57.1,359.6,59.8,356.4,56z"/>
	<path class="st13" d="M363.3,73.5c0,0-3.4,1-2.9,4.6C360.4,78.2,358.9,73.8,363.3,73.5z"/>
	<path class="st13" d="M380.9,73.5c0,0,3.4,1,2.9,4.6C383.8,78.2,385.3,73.8,380.9,73.5z"/>
	<path class="st0" d="M364.2,77.1c0,0,8.9,7.4,16.4-1.2C380.6,75.9,373.1,78.7,364.2,77.1z"/>
	<path class="st14" d="M364.2,77c0,0,3.7,5.2,8.5,4.4c4.8-0.8,5.9-3.1,7.9-5.6C380.6,75.9,373.2,84.3,364.2,77z"/>
	<path class="st14" d="M363.8,77c0,0,7.6-1.4,8.2-0.7c0.2,0.3,0-0.7,9-0.5C381,75.8,373.8,79.1,363.8,77z"/>
	<path class="st9" d="M353.4,104.4"/>
	<path class="st15" d="M357,54.9c0,0,5.2,2.2,10.6,0.6C367.6,55.5,360.7,49.6,357,54.9z"/>
	<path class="st15" d="M387.6,54.7c0,0-4.9,2-10,0.5C377.6,55.3,384.1,49.7,387.6,54.7z"/>
	<path class="st10" d="M363.3,53.4c0.3,0.3,0.5,0.6,0.5,1c0,0.9-0.9,1.6-2,1.6c-1.1,0-2-0.7-2-1.6c0-0.5,0.3-0.9,0.8-1.2
		c-2,0.4-3.4,1.7-3.4,1.7c-3.3,0.5-4-1.5-4-1.5l2.2,0.3c8-6.4,12.4,1.7,12.4,1.7s-0.8-0.5-4.1-2C363.4,53.4,363.4,53.4,363.3,53.4z"
		/>
	<path class="st10" d="M391.4,53.3c0,0-0.7,1.9-3.8,1.4c0,0-1.4-1.3-3.2-1.6c0.4,0.3,0.7,0.7,0.7,1.1c0,0.8-0.9,1.5-1.9,1.5
		c-1.1,0-1.9-0.7-1.9-1.5c0-0.4,0.2-0.7,0.5-0.9c-0.1,0-0.1,0-0.2,0.1c-3.1,1.4-3.9,1.9-3.9,1.9s4.1-7.7,11.7-1.6L391.4,53.3z"/>
	<circle class="st16" cx="383.2" cy="54.2" r="2.1"/>
	<circle class="st16" cx="361.9" cy="54.4" r="2.2"/>
	<path class="st12" d="M374,70.9c0,0,2.5-0.1,3.4-0.7s-1.5-2.6-1.8-4.3c0,0,0.2,2.4,1.3,3.5C378.1,70.4,374,70.9,374,70.9z"/>
	<path class="st17" d="M373.7,65.4c0,0,1.6,4.5,2.5,4.2c0.9-0.3-1-1.9-1.4-2.5S373.7,65.4,373.7,65.4z"/>
	<path class="st12" d="M376,56.3c0,0-2.7,2.5-0.8,8.2C375.3,64.6,374.1,59.2,376,56.3z"/>
	<path class="st12" d="M369.5,68.1c0,0-1.4,2.8,1,2.3s2.2,0.3,2.2,0.3s-0.2-1.3-2.1-1S369.5,68.1,369.5,68.1z"/>
</g>
<g id="Blonde">
	<polygon class="st18" points="175.5,69.4 222.3,69.4 231.4,120.3 174.8,108.9 	"/>
	<path class="st19" d="M180.4,274.9l-6,82.9l39.1,165.4l9.6-4.9l-42.7-162c0,0,16.4-9.1,29.6-81.7L180.4,274.9z"/>
	<path class="st19" d="M149.2,275.2h28.4l-5,81.4L200.1,520H192l-25.7-164.5C166.3,355.5,147.9,313.1,149.2,275.2z"/>
	<path d="M161,219.7c-1.4,4-3.5,7.8-5,11.8c-1.7,4.5-3,9.3-4.1,14c-2.4,10.2-3.7,20.7-3.8,31.2c-0.1,8.2,0.6,16.5,2,24.6
		c0.3,2,4.4,23.6,5.4,23.6c0,0,41,2.5,41.1,2.5c2.3,0.1,6.9-16.6,7.5-18.4c2.7-9,4.6-18.2,5.8-27.6c3.3-25.4,0.4-51.2-5.8-76
		c0,0-39.3-0.1-39.4,0.1c-0.4,0.9-2.6,11.2-2.8,12.2C161.4,218.4,161.2,219,161,219.7z"/>
	<path class="st19" d="M235.4,175.2c-1.6-1.5-8-35.4-8-35.4l-12.2,12.5c0,0-13.2,15.6-16.1,27.8c-2.9,12.2,4,23.4,4,23.4l-35.6-1.2
		c1.9-2.4-1-4.1-1-4.1c-3.9-35.2-12.4-51.3-12.4-51.3s6.3-5.8,8.2-15.6c1.9-9.8-2.3-16.5-2.3-16.5s-1.3,2.3-4.2,7.6l-35.6,43.9
		l42.7,46.7c0,0,10.8-2.6,14.8-3.7c4-1.1,29.9,3.7,29.9,3.7c-5.2,3.7-25.2-1.1-26.1-1.3c1.9,1.4,24.9,11.3,24.9,11.3
		c-7.8,1.2-26.6-9.4-26.6-9.4l14.9,13.3c-6.3,0.7-16.4-11.9-16.4-11.9c-15.2,8-19.8,2-19.8,2s-49.1-43.7-50.3-47.2
		c-1.1-3.2,34.3-50.5,41.6-62.2l0,0c1.8-3.5,3.2-6.1,3.8-7.2c1.9-3.1,23.7,0.4,35.3,2.6l2.9-10.4c0,0-9.3-2.8-15.6-27.7
		c-6.2-24.9,12.5-33.6,12.5-33.6c31.5-2,37.4,19.9,33.4,36.4C218,84,198.9,91.6,198.9,91.6l5.9,13.4c17.6,4.4,33.6,14.1,37,21
		c3.2,6.5,1.1,49.9,1.1,49.9"/>
	<path d="M235.9,117.9c-6.1-4.2-11.3-8.3-27.9-12.9c-11.8-2.6-19-2.8-24.5-3.8c-12.2-2-22.8-2.8-24.8-2.4l0.8,15.2
		c0,0,4.3,6.7,2.3,16.5c-1.3,6.4-5,11-7.5,13.5c-1.3,1.3-1.6,3.2-0.8,4.8c3,6,9.6,21.8,12.6,48.7c0,0-1.5,6.2-1.7,8.2l39.6,0.3
		c0,0-4.5-17.1-2.7-27.9c2-12.4,14.5-26.4,14.5-26.4l11.1-11.1"/>
	<path d="M211.6,517.2c0,0,6.6,26.8,14,31.7c0,0,3.9-8.9-4.3-37.2L211.6,517.2z"/>
	<path d="M193,525.4c0,0-7.9,24-19.5,22c0,0,14,8.9,24.5-14.9l-0.8,12.4h7.8l-3.1-28.2l-11.3,0.5L193,525.4z"/>
	<path class="st20" d="M273.1,127.9"/>
	<path class="st20" d="M269.3,109"/>
	<path class="st20" d="M268.4,106.3"/>
	<path class="st19" d="M184.6,101.7l-1,10.7l25.9,2.3l-0.2-9.4C209.3,105.3,196.7,101.3,184.6,101.7z"/>
	<path class="st19" d="M218.2,260.6c0,0,1.4-23,0-26.4c-1.4-3.4-4.8-12.4-4.8-12.4l19.1-22.4l-7.6-3.1
		c-8.1,11.4-15.4,22.2-15.4,22.2s-4.7,4.7,3.9,17c0,0-9.9,10.2-8.5,15.6l9.9-14.4c0,0-7.1,17.4-5.2,24.1c0,0,6.1-21,7.1-22.9
		C216.3,238.6,214.4,256.5,218.2,260.6z"/>
	<path class="st21" d="M177.5,100c0,0-22.8-3.4-27.2,0c-4.4,3.4-48.4,64.9-45.7,68.9c2.7,4,32.7,33.5,32.7,33.5l10.8-9l-17.3-26.6
		l26.8-39l-8.6,22.7l7.3,49.3l16.1-2.5l-4.4-46.9l9.4-30.2V100z"/>
	<path class="st21" d="M247.6,175.5l-17.8,31.7l-8.7-8.6c0,0,11.8-19.5,12.4-22.1c0.6-2.5-9.5-30.1-9.5-30.1l-16.3,31.2v24.8
		l-15.3-2.1l-3.1-44.6l29.1-47.3c0,0,25.8,6.8,26.7,26.2L247.6,175.5z"/>
	<path class="st22" d="M169.6,103.8c0,0,0,0.1,0.1,0.2h0C169.7,104.1,169.6,104,169.6,103.8z"/>
	<path class="st22" d="M184,101.3L184,101.3c-0.1-0.3-0.1-0.5-0.1-0.5L184,101.3z"/>
	<path class="st22" d="M213.7,106.1c0,0.3-0.1,0.6-0.1,0.9l0,0L213.7,106.1z"/>
	<polygon class="st23" points="210.5,121.3 189.3,155.7 191.1,180.2 194.5,179.1 197.4,157.1 222.9,123.1 214.7,114.4 	"/>
	<polygon class="st23" points="177.5,120.3 167.4,124.2 163.8,150.4 168.4,181.1 170.6,180.2 168,150.5 	"/>
	
		<ellipse transform="matrix(0.7071 -0.7071 0.7071 0.7071 -20.8316 160.7122)" class="st24" cx="183.6" cy="105.5" rx="3.4" ry="4.3"/>
	
		<ellipse transform="matrix(0.7071 -0.7071 0.7071 0.7071 -22.7756 164.3263)" class="st24" cx="187" cy="109.7" rx="3.4" ry="4.3"/>
	<ellipse transform="matrix(0.2861 -0.9582 0.9582 0.2861 30.0638 264.3748)" class="st24" cx="192.5" cy="112" rx="3.4" ry="4.3"/>
	<ellipse class="st24" cx="198.6" cy="111.2" rx="4.3" ry="3.4"/>
	
		<ellipse transform="matrix(0.9788 -0.2046 0.2046 0.9788 -18.2405 44.3168)" class="st24" cx="205.2" cy="110.4" rx="4.3" ry="3.4"/>
	
		<ellipse transform="matrix(0.9788 -0.2046 0.2046 0.9788 -17.9267 45.2995)" class="st24" cx="210.1" cy="109.3" rx="4.3" ry="3.4"/>
	<path class="st25" d="M221.1,105.8C221.1,105.8,221.1,105.8,221.1,105.8C221.1,105.8,221.1,105.8,221.1,105.8L221.1,105.8z"/>
	<path class="st26" d="M370.9,24.9c-1.7-2.3-6.1-3.2-9.9-2.7c-2.4,0.3-4.7,1.4-6.8,2.7c-6.6,4.1-11.4,10.3-12.3,16.3
		c-0.5,2.9-0.1,5.7,0.5,8.3c0.5,2.1,1.4,4.3,0.1,6.7c-0.7,1.3-2.2,2.6-3.8,3.3c-1.5,0.6-3.3,0.9-4.6,0.6c3.2,1.1,6.9,1.7,10.9,0.8
		c1.8-0.4,3.6-1.3,4.7-2.6c1.3-1.6,1.6-3.9,2-5.6c0.6-2.2,1-4.3,1.6-6.5c1-3.7,2.3-7.6,4.8-11.1c1.4-2,3.2-3.9,5.3-5.5
		c1.1-0.8,2.3-1.6,3.5-2.2C368,26.7,368.4,26.4,370.9,24.9z"/>
	<path class="st26" d="M360.5,26.1c1.2-3.4,5.5-6.2,9.6-7c2.5-0.5,5.3-0.1,7.8,0.7c8,2.4,14.6,8.1,17.2,14.9
		c1.3,3.3,1.7,6.8,1.7,10.2c0,2.7-0.3,5.7,1.8,8.1c1.1,1.3,2.9,2.3,4.8,2.5c1.7,0.2,3.7-0.1,5-1.1c-3,2.5-6.8,4.6-11.1,5
		c-2,0.2-4.1-0.2-5.6-1.4c-1.8-1.5-2.7-4.1-3.6-6c-1.2-2.4-2.2-4.8-3.4-7.2c-2-4.1-4.5-8.2-8-11.5c-2-1.9-4.4-3.5-7-4.6
		c-1.4-0.6-2.8-1-4.3-1.3C364,27.1,363.4,26.9,360.5,26.1z"/>
	<path class="st19" d="M199.6,25.6c0,0,22-3.9,24.6,18.5s-8.5,45.9-26,49.2c0,0-16.3,0.5-26.1-27.3
		C162.3,38.3,182.6,23.7,199.6,25.6z"/>
	<path class="st27" d="M188.4,73.5c0,0,2.6,8.9,8.5,9.4c5.9,0.4,9.4-3.7,9.4-3.7l1.5-3.5l-8.9,0.4L188.4,73.5z"/>
	<path class="st28" d="M195.8,67.5c0,0-1.8,1.8,0.2,2.7c0,0,1.9-0.4,2.6,0.2c0,0-0.2-0.9-2.1-0.8C196.5,69.6,195.3,69.4,195.8,67.5z
		"/>
	<path class="st28" d="M203.4,66.4c0,0,1.7,4.7-2.5,4.6c0,0,2.6,1,3.3-1.4C204.2,69.7,204.5,67.8,203.4,66.4z"/>
	<path class="st28" d="M204.8,68.5c0,0,1.1,2.1-0.9,1.9C203.8,70.4,205.2,70,204.8,68.5z"/>
	<path class="st29" d="M205.9,56.1c0,0-2.5,2.8-2.5,7.8c0,0-0.9-7.5,2.5-9.6V56.1z"/>
	<path class="st30" d="M202.5,56.4c0,0-4.2,12.2-0.4,12.1c0,0,0.8,0.1,0.2-2.2C201.6,64,202.5,56.4,202.5,56.4z"/>
	<path class="st29" d="M189.3,70.1c0,0-5.8,0.7-3.1,5C186.2,75.1,185.7,71.6,189.3,70.1z"/>
	<path class="st29" d="M210.3,77.1c0,0,2.4-5.4-2.7-5.3C207.7,71.8,210.9,73.2,210.3,77.1z"/>
	<path class="st31" d="M208.9,51.1c0,0,7.3-4.2,13,1.5c0,0-2.7-7.9-13-3.9V51.1z"/>
	<path class="st31" d="M194.9,50c0,0-8.4-5.4-16.3-1.2c0,0,4.6-6.9,16.7-1.1L194.9,50z"/>
	<path class="st0" d="M181.5,54.5c0,0,4.6,4.1,12.5,1.4c0,0-3.4-4.7-6.1-4.7S181.6,52.4,181.5,54.5z"/>
	<g>
		<circle class="st32" cx="187.8" cy="54" r="2.9"/>
		<path class="st33" d="M194.2,56c0,0-3.6-4.8-8.2-4.2c0,0-3.3,0.9-4.3,2.8l-2.6-2.5l2,0.1C181.2,52.3,189.2,46.6,194.2,56z"/>
	</g>
	<path class="st0" d="M207,58.1c0,0,2.5,5,10,2.1c0,0,0-4.7-4.2-4.8C208.7,55.3,207,58.1,207,58.1z"/>
	<path class="st33" d="M207,58.2c0,0,2.8-3.7,7.5-1.6c0,0,1.9,0.7,2.5,3.7l2.6-1.4l-1.4-0.1C218.2,58.8,212.6,50.6,207,58.2z"/>
	<circle class="st32" cx="211.7" cy="58.3" r="2.9"/>
	<g>
		<path class="st34" d="M189.3,74c0,0,3.6,4.7,9.5,4.8c6,0.1,8.1-2.9,8.1-2.9l-9-0.2L189.3,74z"/>
		<path class="st0" d="M191.5,78.6c0,0,6.6,3.1,11.5,2.2C203,80.8,196.3,84.4,191.5,78.6z"/>
		<path class="st35" d="M187.1,72.2c0,0,0.2,0.3,0.7,0.7v0.8c0.7,4.3,3.1,9.3,10.3,11c6.6,1.6,10-7.9,10.5-9.5
			c0.8-0.4,1.1-0.7,1.1-0.7S197.8,76.6,187.1,72.2z M198.1,81.8c-1.2-0.1-2.4-0.3-3.5-0.8c-2.7-1.2-4.5-3.6-5.7-6.2
			c-0.1-0.3-0.3-1.2-0.6-1.4c1.7,1.3,5,3.3,10.3,3.5c3,0.1,5.9-0.2,8.8-1.1c-0.5,0.2-0.9,1.5-1.2,2c-0.4,0.7-1,1.3-1.6,1.9
			C202.9,81.2,200.5,81.9,198.1,81.8z"/>
	</g>
	<path class="st20" d="M220.5,58.1"/>
	<path class="st20" d="M219,51"/>
	<path class="st20" d="M218.7,50"/>
	
		<ellipse transform="matrix(0.9788 -0.2046 0.2046 0.9788 -13.0263 37.8358)" class="st36" cx="176.4" cy="81.9" rx="3.4" ry="7.6"/>
	<ellipse transform="matrix(0.207 -0.9783 0.9783 0.207 92.1631 279.4744)" class="st36" cx="218.5" cy="82.9" rx="7.6" ry="3.4"/>
	<path class="st22" d="M200.4,24.1c-2.5-1-9.6,4.7-11.2,6c-7.9,6.3-12.3,15.6-13.7,25.5c-1.7,12,3.2,23.3,2.7,35.2
		c-0.2,4.8-1.7,9.9-5.7,12.5c-2.4,1.5-5.5,1.9-8.3,1.2c-2.3-0.6-4.5-1.9-5.9-3.8c-1.4-1.9-2-4.5-1.3-6.8c-0.3,1.1,3.5,3.4,4.3,3.8
		c2,1,4,1.6,5.4-0.5c3.2-5-3.1-29.8-3.1-29.8S148.3,3.6,200.4,24.1z"/>
	<g>
		<path class="st22" d="M191.5,25.7c0,0,15.4-20,33.4-5.1s-5.3,85,11.6,80.8c0,0,6.2-1.3,5.5-6.5c0,0,5.5,10.9-3.8,11.6
			s-22.5-2.7-19.3-28.2C222.1,52.9,233.7,28.2,191.5,25.7z"/>
		<path class="st37" d="M192.4,27.8c1.6-4.1,6.6-7.4,11.1-8.2c2.8-0.5,5.7,0.2,8.3,1.3c8.4,3.4,14.9,11,17,19.7
			c1,4.2,1.1,8.6,0.8,12.9c-0.2,3.4-0.9,7.1,1,10.2c1.1,1.7,2.9,3,5,3.4c1.8,0.4,4,0,5.5-1.1c-3.5,2.9-7.8,5.3-12.5,5.6
			c-2.1,0.1-4.4-0.5-5.9-2c-1.8-1.9-2.5-5.3-3.3-7.7c-1-3.1-1.9-6.2-2.9-9.2c-1.8-5.3-3.9-10.5-7.4-14.9c-2-2.4-4.4-4.6-7.1-6.1
			c-1.4-0.8-2.9-1.4-4.5-1.9C196.1,29.3,195.5,29,192.4,27.8z"/>
	</g>
	<radialGradient id="SVGID_1_" cx="214.5965" cy="67.4643" r="4.6063" gradientUnits="userSpaceOnUse">
		<stop  offset="0" style="stop-color:#FFFFFF"/>
		<stop  offset="1" style="stop-color:#E2B5D5"/>
	</radialGradient>
	<circle class="st38" cx="214.6" cy="67.5" r="4.6"/>
	<radialGradient id="SVGID_2_" cx="182.0968" cy="63.7114" r="5.7105" gradientUnits="userSpaceOnUse">
		<stop  offset="0" style="stop-color:#FFFFFF"/>
		<stop  offset="1" style="stop-color:#E2B5D5"/>
	</radialGradient>
	<circle class="st39" cx="182.1" cy="63.7" r="5.7"/>
	
		<radialGradient id="SVGID_3_" cx="393.8179" cy="70.4521" r="6.0163" gradientTransform="matrix(0.9945 -0.1046 0.1046 0.9945 -12.0065 37.2183)" gradientUnits="userSpaceOnUse">
		<stop  offset="0" style="stop-color:#FFFFFF"/>
		<stop  offset="1" style="stop-color:#E7B28D"/>
	</radialGradient>
	<circle class="st40" cx="387" cy="66.1" r="6"/>
	
		<radialGradient id="SVGID_4_" cx="363.772" cy="67.2908" r="6.0163" gradientTransform="matrix(0.9945 -0.1046 0.1046 0.9945 -12.0065 37.2183)" gradientUnits="userSpaceOnUse">
		<stop  offset="0" style="stop-color:#FFFFFF"/>
		<stop  offset="1" style="stop-color:#E7B28D"/>
	</radialGradient>
	<circle class="st41" cx="356.8" cy="66.1" r="6"/>
</g>
</svg>
