<?xml version="1.0" encoding="utf-8"?>
<!-- Generator: Adobe Illustrator 19.1.0, SVG Export Plug-In . SVG Version: 6.00 Build 0)  -->
<!DOCTYPE svg PUBLIC "-//W3C//DTD SVG 1.1//EN" "http://www.w3.org/Graphics/SVG/1.1/DTD/svg11.dtd">
<svg version="1.1" id="Layer_1" xmlns="http://www.w3.org/2000/svg" xmlns:xlink="http://www.w3.org/1999/xlink" x="0px" y="0px"
	 width="612px" height="612px" viewBox="0 0 612 612" style="enable-background:new 0 0 612 612;" xml:space="preserve">
<style type="text/css">
	.st0{fill:none;}
	.st1{fill:#3F403F;}
</style>
<g>
	<g>
		<path d="M320.5,258.8c-19.5-3.5-38.8-7.3-58-11.4c-19.2-4.1-38.7-7.8-58.4-11c-7.7,17.3-14.2,35-19.4,52.8
			c-5.2,17.9-9.7,36-13.4,54.4c-0.3,1.6-0.8,4.8-1.6,9.6c-0.8,4.8-1.7,10.3-2.8,16.4c-1.1,6.1-2.3,12.5-3.8,19.2
			c-1.5,6.7-3,12.7-4.6,18s-3.4,9.5-5.4,12.6c-2,3.1-4.1,4.1-6.2,3c-1.9-0.8-3.3-2.3-4.2-4.6c-0.9-2.3-1.6-4.8-2-7.6
			c-0.4-2.8-0.7-5.5-0.8-8.2c-0.1-2.7-0.3-4.8-0.6-6.4c-0.8-9.3-1.5-18.5-2-27.6c-0.5-9.1-0.9-18.3-1.2-27.6
			c-0.5-18.9-0.7-37.8-0.6-56.6c0.1-18.8,0.6-37.6,1.4-56.2l-17.6-1.6c-0.8,0-3.7,0.1-8.8,0.2c-5.1,0.1-10.4,0.1-16-0.2
			c-5.6-0.3-10.7-0.9-15.2-1.8c-4.5-0.9-6.7-2.3-6.4-4.2c0-2.1,1.5-3.5,4.6-4c3.1-0.5,6.5-0.8,10.4-0.8c3.9,0,7.7,0.2,11.4,0.6
			c3.7,0.4,6.4,0.6,8,0.6c10.1,0,20.3-1.5,30.4-4.4c0.5-7.7,1.1-15.7,1.6-23.8c0.5-8.1,1.2-16.2,2-24.2c1.3-10.1,2.6-20.3,3.8-30.6
			c1.2-10.3,2.9-20.5,5-30.6c0.5-2.1,0.9-4.3,1.2-6.6c0.3-2.3,0.9-4.5,2-6.6c0.5-1.3,1.6-2.5,3.2-3.6c1.6-1.1,3.1-0.8,4.4,0.8
			c1.3,1.3,1.8,3.1,1.4,5.2c-0.4,2.1-0.9,4-1.4,5.6c-5.3,17.9-8.8,36.4-10.4,55.4c-1.6,19.1-3.1,38.1-4.4,57
			c12.3-3.7,24-8.5,35.2-14.2c11.2-5.7,22.3-11.7,33.2-17.8c1.3-0.8,3.5-2.3,6.6-4.4c3.1-2.1,6.3-4.1,9.8-6c3.5-1.9,6.7-3.2,9.8-4
			c3.1-0.8,5.1-0.3,6.2,1.6c1.1,1.3,1.2,2.8,0.4,4.4c-0.8,1.6-2,3.3-3.6,5c-1.6,1.7-3.3,3.3-5,4.8c-1.7,1.5-3,2.7-3.8,3.8
			c-5.9,6.9-10.9,14.1-15.2,21.6c-4.3,7.5-8.3,15.1-12,22.8c19.2,3.7,38.4,7.8,57.4,12.2c19.1,4.4,38.2,9,57.4,13.8
			c7.5,2.1,14.9,4.3,22.2,6.6c7.3,2.3,14.9,4.6,22.6,7c-8-1.3-15.8-2.6-23.4-3.8C336.3,262.2,328.5,260.7,320.5,258.8z M193.2,258.4
			c1.3-3.7,2.7-7.5,4-11.4c1.3-3.9,2.8-7.7,4.4-11.4c-9.3-1.6-18.7-2.9-28-4c-9.3-1.1-18.7-2.3-28-3.6c-0.8,16-1.3,32.1-1.6,48.2
			c-0.3,16.1-0.3,32.2,0,48.2c0.3,14.4,0.5,29,0.8,43.8c0.3,14.8,1.9,29.3,4.8,43.4c4.5-12,8.3-24.5,11.2-37.4
			c2.9-12.9,6.1-25.8,9.6-38.6c3.7-13.1,7.3-26,10.8-38.8C184.7,284,188.7,271.2,193.2,258.4z M146,217.2c0,0.5-0.1,1-0.2,1.4
			c-0.1,0.4-0.2,0.7-0.2,1c10.1,0.8,20.1,1.9,30,3.2c9.9,1.3,19.7,2.9,29.6,4.8c6.9-17.9,15.5-34.4,25.6-49.6
			c-12.8,6.1-25.4,12.7-37.6,19.8c-12.3,7.1-25.2,12.9-38.8,17.4L146,217.2z"/>
	</g>
	<g>
		<path d="M478.6,282.5c8.6,9.1,14.4,18.8,17.3,29.3c3,10.5,3.5,21,1.7,31.3c-1.8,10.4-5.8,20.4-12.1,30.1
			c-6.2,9.7-14,18.2-23.2,25.3c-19.5,15.3-41.3,24.9-65.2,28.8c-24,3.9-47.6,2.9-71.1-3.1c-18.1-6.1-32.5-15.6-43.4-28.7
			c-10.9-13.1-17.6-29.3-20-48.7c-1.3-10.3-1-21.2,0.8-32.7c1.8-11.6,5.1-22.6,9.9-33c4.8-10.4,11.1-19.7,18.8-27.9
			c7.8-8.1,17.1-14.1,27.9-17.8c-14.2,7.8-25.2,18.8-32.9,33.2c-7.7,14.4-12.8,29.4-15.4,44.9c-1.4,7.9-2,15.9-1.9,23.9
			c0.1,8,1.4,16.1,3.9,24.1c4.3,15.6,12.2,27.9,23.7,37c11.4,9.1,24.5,15.5,39.1,19.2c14.6,3.7,30.1,4.6,46.4,2.9
			c16.3-1.8,31.7-5.9,46.1-12.3c14.4-6.4,26.8-14.9,37.3-25.5c10.4-10.6,17.3-23.1,20.5-37.5c2.4-11.3,2-21.6-1.4-30.9
			c-3.4-9.3-8.6-17.5-15.7-24.9c-7-7.3-15.1-13.8-24.1-19.3c-9.1-5.6-18-10.5-26.9-14.7c-16.2-7.5-32.5-14.2-49.1-20.2
			c-16.6-6-33.4-11.6-50.4-16.9l-50.7-15.1c-1.5-0.1-3.8-0.4-6.8-0.9c-3-0.5-6-1.2-9-2.2c-3-1-5.5-2.1-7.6-3.5
			c-2.1-1.4-2.9-3.1-2.2-5.3c-1.5-2.2-0.8-4.4,2.1-6.7c2.8-2.3,6.3-4.4,10.4-6.2c4.1-1.9,8.1-3.5,12.1-4.9c4-1.4,6.7-2.3,8.1-2.8
			c11.1-4.4,22.4-8.1,33.9-11.2c11.5-3.1,23-5.4,34.5-6.8c5-0.6,10.4-1.2,16.3-1.6c5.9-0.4,11.8-0.5,17.6-0.2
			c5.9,0.3,11.6,1.2,17.1,2.5c5.5,1.4,10.4,3.6,14.7,6.6c1.9,1.2,3.3,2.9,4.2,4.8c0.9,2.6,1.2,5.3,0.8,8.2c-0.4,2.9-1.2,5.7-2.3,8.3
			c-1.2,2.7-2.6,5.2-4.4,7.5c-1.8,2.3-3.7,4-5.6,5.2c-1.9,1.7-4.1,2.2-6.7,1.5c-2.6-0.7-3.4-2.6-2.3-5.7c1.2-2.5,2.8-4.7,5-6.4
			c2.2-1.8,4-3.6,5.6-5.6c1.3-1.6,2.1-3.4,2.5-5.2c0.4-1.8,0.1-3.9-0.8-6.2l-0.4,0.1l-0.1-0.4c-4.5-2.7-9.6-4.6-15.3-5.7
			c-5.7-1.1-11.5-1.7-17.7-1.8c-6.1-0.1-12.1,0.2-18,0.9c-5.9,0.7-11.3,1.6-16.2,2.5c-19.9,2.8-39.5,8.3-58.8,16.4
			c-4,1.7-7.7,3.5-11.2,5.4c-3.5,1.9-7.2,3.9-11.1,5.9c13.4,4.6,26.7,8.7,40,12.4c13.3,3.7,26.6,7.7,40,11.9
			c14.9,4.7,29.5,9.6,43.7,14.6c14.2,5.1,28.3,11,42.3,17.9c10.1,4.7,19.9,9.8,29.4,15.3C462,267.3,470.7,274.2,478.6,282.5z"/>
	</g>
</g>
<g>
	<rect x="6.4" y="468.9" class="st0" width="599.3" height="54.9"/>
	<path class="st1" d="M106.8,469.4h3.5v10.4l10.9-10.4h4.9l-12.4,11.9l12.5,13.7h-4.5l-11.4-12.5V495h-3.5V469.4z"/>
	<path class="st1" d="M151.4,468.4l12.1,26.6h-3.7l-3-6.6H146L143,495h-3.6L151.4,468.4z M151.4,476.4l-4.1,9.1h8.2L151.4,476.4z"/>
	<path class="st1" d="M175.4,469.4h15.7v3.5H185V495h-3.5v-22.1h-6.1V469.4z"/>
	<path class="st1" d="M207.1,469.4h14.2v3.5h-10.7v6.4h10.7v3.5h-10.7v8.8h10.7v3.5h-14.2V469.4z"/>
	<path class="st1" d="M277.1,472.2l-2.8,2.3c-0.7-0.8-1.4-1.4-2-1.7c-0.6-0.4-1.5-0.6-2.6-0.6c-1.3,0-2.3,0.3-3.1,0.9
		c-0.8,0.6-1.2,1.3-1.2,2.2c0,0.8,0.3,1.5,1,2.1c0.7,0.6,1.8,1.2,3.5,2c1.6,0.7,2.9,1.4,3.8,2c0.9,0.6,1.7,1.3,2.3,2
		c0.6,0.7,1,1.5,1.3,2.3c0.3,0.8,0.4,1.7,0.4,2.6c0,2.1-0.8,3.9-2.3,5.4c-1.5,1.5-3.4,2.2-5.6,2.2c-2.1,0-4-0.6-5.7-1.8
		c-1.6-1.2-2.9-2.9-3.8-5.3l3.5-1c1.3,2.9,3.2,4.3,5.9,4.3c1.3,0,2.3-0.4,3.2-1.1s1.3-1.7,1.3-2.9c0-0.7-0.2-1.4-0.7-2.1
		c-0.4-0.7-1-1.3-1.7-1.7s-1.7-1-3.1-1.6c-1.4-0.6-2.5-1.1-3.3-1.6c-0.8-0.5-1.4-1.1-2-1.7c-0.6-0.7-1-1.3-1.2-2s-0.4-1.4-0.4-2.1
		c0-1.8,0.7-3.4,2.2-4.7c1.5-1.3,3.3-1.9,5.4-1.9c1.4,0,2.8,0.3,4.2,0.9C275,470.1,276.2,471,277.1,472.2z"/>
	<path class="st1" d="M315.5,468.3l7,26.7h-3.4l-4.2-16.3l-7.3,17.3l-7.3-17.4L296,495h-3.4l7-26.7l8,19.1L315.5,468.3z"/>
	<path class="st1" d="M338.2,469.4h14.2v3.5h-10.7v6.4h10.7v3.5h-10.7v8.8h10.7v3.5h-14.2V469.4z"/>
	<path class="st1" d="M369.4,469.4h5.5c2.8,0,5,0.7,6.7,2.1c1.7,1.4,2.6,3.1,2.6,5.3c0,1.7-0.6,3.2-1.7,4.5
		c-1.1,1.3-2.9,2.2-5.3,2.8l7.4,11h-4l-7.1-10.5h-0.8V495h-3.5V469.4z M372.9,472.5v8.9c5.2,0.1,7.7-1.4,7.7-4.5
		c0-1.1-0.3-2-0.9-2.7c-0.6-0.7-1.4-1.2-2.4-1.4C376.3,472.6,374.9,472.5,372.9,472.5z"/>
	<path class="st1" d="M401.9,469.4h6.2c4.9,0,8.6,1.3,11,3.9c2.4,2.6,3.6,5.6,3.6,8.9c0,3.4-1.2,6.3-3.7,8.9s-6.1,3.9-10.8,3.9h-6.3
		V469.4z M405.4,472.8v18.7h0.2c2.6,0,4.6-0.1,5.9-0.4s2.6-0.7,3.7-1.5c1.2-0.8,2.1-1.8,2.8-3.1c0.7-1.3,1-2.7,1-4.3
		c0-2-0.6-3.8-1.7-5.3c-1.1-1.6-2.4-2.7-4-3.2c-1.5-0.5-3.6-0.8-6.2-0.8H405.4z"/>
	<path class="st1" d="M438,482c0-3.7,1.4-6.9,4.2-9.5c2.8-2.6,6.1-4,10.1-4c3.8,0,7.1,1.3,9.9,4s4.1,5.8,4.1,9.5
		c0,3.9-1.4,7.1-4.1,9.8c-2.7,2.7-6.1,4-10,4c-3.9,0-7.2-1.3-10-4C439.3,489.1,438,485.9,438,482z M462.5,482.2c0-2.8-1-5.2-3.1-7.1
		s-4.5-2.9-7.5-2.9c-2.8,0-5.2,1-7.3,3c-2,2-3,4.3-3,7.1c0,2.8,1,5.2,3.1,7.1s4.6,2.9,7.6,2.9c2.8,0,5.1-1,7.1-3
		C461.5,487.3,462.5,484.9,462.5,482.2z"/>
	<path class="st1" d="M482.9,468.4l18.9,19.5v-18.4h3.5v26.8l-18.9-19.4V495h-3.5V468.4z"/>
</g>
<g>
</g>
<g>
</g>
<g>
</g>
<g>
</g>
<g>
</g>
<g>
</g>
</svg>
