<svg id="Layer_1" data-name="Layer 1" xmlns="http://www.w3.org/2000/svg" viewBox="0 0 431.81 79.26"><defs><style>.cls-1{fill:#231f20;}</style></defs><title>wordmark-logo</title><path class="cls-1" d="M38.7,93.26H36.9L28.08,55.1,19.89,75.26v18h-1.8V32h1.8V71L35.73,32h1.8L29.16,52.4Z" transform="translate(-18.09 -23)"/><path class="cls-1" d="M77,93.35H75.06L74,83.45H58.77l-1.08,9.9H55.8L63.27,32h6.12ZM73.71,81.74,68,33.68H64.8L59,81.74Z" transform="translate(-18.09 -23)"/><path class="cls-1" d="M112.14,33.68H101.43V93.35h-1.8V33.68H89.1V32h23Z" transform="translate(-18.09 -23)"/><path class="cls-1" d="M147.24,93.35h-15.3V32h15.3v1.71h-13.5v27h11.43v1.71H133.74V91.64h13.5Z" transform="translate(-18.09 -23)"/><path class="cls-1" d="M200.07,47.36l-1.8-.18a30.59,30.59,0,0,0,.36-5.13c0-5.85-1.17-10-7.11-10-3.69,0-7.29,2.07-7.29,9.18v3.24c0,5,2.7,9.54,6.48,14.94,4,5.58,9.09,12.87,9.09,20v3.78c0,7.29-3.6,11.16-9.9,11.16-4.77,0-8.73-3.24-8.73-11.79a40.94,40.94,0,0,1,.36-6.12l1.71.18a32.85,32.85,0,0,0-.45,5.67c0,8.19,3.15,10.53,7,10.53,5.13,0,8.28-3.51,8.28-9.45V79.85c0-6.84-4.14-13-8.91-19.62-3.6-5-6.75-9.45-6.75-15.57v-3c0-8.82,4-11.25,9.18-11.25,7.56,0,8.82,5.94,8.82,11.61A36.72,36.72,0,0,1,200.07,47.36Z" transform="translate(-18.09 -23)"/><path class="cls-1" d="M250.47,93.26h-1.8V33.59h-2.16L235.62,93.26h-1.44L224,33.59h-2.25V93.26H220V32h5.58l9.36,56.7L245,32h5.49Z" transform="translate(-18.09 -23)"/><path class="cls-1" d="M288,93.35H272.7V32H288v1.71H274.5v27h11.43v1.71H274.5V91.64H288Z" transform="translate(-18.09 -23)"/><path class="cls-1" d="M318.78,64.19c6.39,1.17,8.1,4.77,8.1,17.37a99.49,99.49,0,0,0,.36,11.7h-2c-.18-2.07-.27-6.21-.27-11.79,0-2.7-.18-5.49-.36-7.47-.63-7.2-5.31-8.82-8.73-8.82h-6V93.26h-1.8V32H317c5.31,0,10.62.63,10.62,15.3C327.6,59.15,323.73,63.29,318.78,64.19Zm-2.16-30.51h-6.75V63.47h4c5.94,0,11.88-2.34,11.88-16.29C325.8,33.68,321.21,33.68,316.62,33.68Z" transform="translate(-18.09 -23)"/><path class="cls-1" d="M368.73,83.18c0,7.11-3,10.08-10.53,10.08h-9.27V32h9.63c7.56,0,10.17,2.52,10.17,10.53ZM367,42.05c0-6.12-2-8.37-8.46-8.37h-7.83V91.55h7.38c6.48,0,8.91-2.52,8.91-8.28Z" transform="translate(-18.09 -23)"/><path class="cls-1" d="M409.77,83.54c0,6.57-3.6,10.62-9.81,10.62-6.39,0-10.17-4-10.17-10.62V41.24c0-7.83,4.68-10.8,10.17-10.8,5.94,0,9.81,4,9.81,10.53Zm-1.71-43c0-4.68-3.06-8.46-8.19-8.46-3.87,0-8.28,2.34-8.28,8.73V83.9c0,4.5,2.61,8.64,8.37,8.64,4.95,0,8.1-3.51,8.1-8.37Z" transform="translate(-18.09 -23)"/><path class="cls-1" d="M449.89,93h-1.75L432.27,34.13V93.26h-1.8V32h3.06l14.76,53.91L448.2,32h1.71Z" transform="translate(-18.09 -23)"/><polygon class="cls-1" points="1.8 9.6 0 9.6 0 0 431.62 0 431.62 1.75 1.77 1.75 1.8 9.6"/><polygon class="cls-1" points="431.71 79.26 0.1 79.26 0.1 77.51 429.96 77.51 429.96 69.66 431.71 69.66 431.71 79.26"/></svg>