<?xml version="1.0" encoding="utf-8"?>
<!-- Generator: Adobe Illustrator 21.1.0, SVG Export Plug-In . SVG Version: 6.00 Build 0)  -->
<svg version="1.1" id="Layer_1" xmlns="http://www.w3.org/2000/svg" xmlns:xlink="http://www.w3.org/1999/xlink" x="0px" y="0px"
	 viewBox="0 0 288 288" style="enable-background:new 0 0 288 288;" xml:space="preserve">
<style type="text/css">
	.st0{fill:#031E2B;}
	.st1{opacity:0.9;fill:none;stroke:#F4F1EF;stroke-width:5;stroke-miterlimit:10;enable-background:new    ;}
</style>
<circle class="st0" cx="144" cy="144" r="144"/>
<g>
	<path class="st1" d="M115.5,227.6c-0.1-1.2-0.2-2.1-0.2-3c0.3-35.6,0.5-71.1,0.7-106.7c0-2.7,1-3.6,3.6-3.6
		c10.8,0.1,21.6,0.1,32.4,0c2.6,0,3.6,0.8,3.4,3.4c-0.2,2.5,0,5.1,0,8.4c1.7-1,2.7-1.5,3.7-2.1c8.6-5.7,17.7-10.6,28.1-12
		c9.7-1.3,19.4-0.9,28.5,3c12.6,5.4,19,15.4,20.9,28.5c0.5,3.3,0.7,6.8,0.7,10.1c-0.1,23.7-0.4,47.3-0.6,71c0,0.9-0.1,1.8-0.2,2.9
		c-1.3,0.1-2.4,0.3-3.6,0.3c-10.5,0-21,0-31.5,0c-4,0-4-0.1-4-4c0.2-17.2,0.4-34.4,0.4-51.5c0-5.8-0.4-11.6-1.1-17.3
		c-1-8.8-5.7-13-14.5-13.8c-8.5-0.7-16.4,1-24.1,4.8c-2.3,1.1-3.1,2.5-3.1,5.1c-0.1,24.1-0.3,48.1-0.5,72.2c0,1.3,0,2.6,0,4.2
		C141.4,227.6,128.6,227.6,115.5,227.6z"/>
	<path class="st1" d="M90.3,227.6c-13,0-25.8,0-39.1,0c0-1.4,0-2.6,0-3.8c0.3-34.8,0.5-69.7,0.8-104.5c0-4.9,0.1-5,4.9-5
		c10.3,0,20.6,0.1,30.8-0.1c2.9,0,3.7,0.9,3.7,3.8c-0.4,35.4-0.7,70.9-1,106.3C90.4,225.4,90.3,226.4,90.3,227.6z"/>
	<path class="st1" d="M93.5,81.7c-0.1,11.9-9.8,21.4-21.7,21.2c-11.6-0.2-21.3-10-21.1-21.6c0.2-11.9,9.8-21.2,21.8-21.2
		C84.2,60.2,93.6,69.8,93.5,81.7z"/>
</g>
</svg>
