<?xml version="1.0" encoding="utf-8"?>
<!-- Generator: Adobe Illustrator 21.0.2, SVG Export Plug-In . SVG Version: 6.00 Build 0)  -->
<!DOCTYPE svg PUBLIC "-//W3C//DTD SVG 1.1//EN" "http://www.w3.org/Graphics/SVG/1.1/DTD/svg11.dtd">
<svg version="1.1" id="Layer_1" xmlns="http://www.w3.org/2000/svg" xmlns:xlink="http://www.w3.org/1999/xlink" x="0px" y="0px"
	 width="300px" height="300px" viewBox="0 0 300 300" style="enable-background:new 0 0 300 300;" xml:space="preserve">
<style type="text/css">
	.st0{fill:none;}
	.st1{font-family:'BalboaPlus-Fill';}
	.st2{font-size:21px;}
	.st3{letter-spacing:-1;}
</style>
<rect x="0" y="61.3" class="st0" width="300" height="177.4"/>
<text transform="matrix(1 0 0 1 -7.534027e-05 77.3602)"><tspan x="0" y="0" class="st1 st2">I am ve</tspan><tspan x="52" y="0" class="st1 st2">r</tspan><tspan x="60.7" y="0" class="st1 st2">y vers</tspan><tspan x="109.8" y="0" class="st1 st2 st3">a</tspan><tspan x="117.5" y="0" class="st1 st2">tile when it comes to </tspan><tspan x="0" y="25.2" class="st1 st2">design. I h</tspan><tspan x="80.6" y="25.2" class="st1 st2 st3">a</tspan><tspan x="88.7" y="25.2" class="st1 st2">ve a </tspan><tspan x="123" y="25.2" class="st1 st2">v</tspan><tspan x="131.6" y="25.2" class="st1 st2">a</tspan><tspan x="140.5" y="25.2" class="st1 st2">s</tspan><tspan x="148.7" y="25.2" class="st1 st2">t b</tspan><tspan x="171.6" y="25.2" class="st1 st2">a</tspan><tspan x="180.5" y="25.2" class="st1 st2">ckground in </tspan><tspan x="0" y="50.4" class="st1 st2">prin</tspan><tspan x="34" y="50.4" class="st1 st2">t</tspan><tspan x="42.7" y="50.4" class="st1 st2">, il</tspan><tspan x="66.5" y="50.4" class="st1 st2">l</tspan><tspan x="74.5" y="50.4" class="st1 st2">u</tspan><tspan x="84.1" y="50.4" class="st1 st2">s</tspan><tspan x="92.3" y="50.4" class="st1 st2">tr</tspan><tspan x="111.2" y="50.4" class="st1 st2 st3">a</tspan><tspan x="119" y="50.4" class="st1 st2">tion, </tspan><tspan x="162.7" y="50.4" class="st1 st2">l</tspan><tspan x="170.7" y="50.4" class="st1 st2">ogo design, </tspan><tspan x="264.2" y="50.4" class="st1 st2">p</tspan><tspan x="272.9" y="50.4" class="st1 st2">a</tspan><tspan x="281.9" y="50.4" class="st1 st2">ge </tspan><tspan x="0" y="75.6" class="st1 st2">l</tspan><tspan x="8.3" y="75.6" class="st1 st2 st3">a</tspan><tspan x="15.8" y="75.6" class="st1 st2">youts, web and much more. Feel </tspan><tspan x="0" y="100.8" class="st1 st2">free to </tspan><tspan x="60.7" y="100.8" class="st1 st2">t</tspan><tspan x="69.3" y="100.8" class="st1 st2">ake a </tspan><tspan x="113" y="100.8" class="st1 st2">l</tspan><tspan x="121" y="100.8" class="st1 st2">ook </tspan><tspan x="153.3" y="100.8" class="st1 st2 st3">a</tspan><tspan x="161" y="100.8" class="st1 st2">t </tspan><tspan x="174.2" y="100.8" class="st1 st2">m</tspan><tspan x="185.9" y="100.8" class="st1 st2">y po</tspan><tspan x="218.2" y="100.8" class="st1 st2">r</tspan><tspan x="227" y="100.8" class="st1 st2">tfolio </tspan><tspan x="0" y="126" class="st1 st2">and ple</tspan><tspan x="58" y="126" class="st1 st2">a</tspan><tspan x="66.9" y="126" class="st1 st2">se don&apos;t hesi</tspan><tspan x="167.5" y="126" class="st1 st2">t</tspan><tspan x="176.1" y="126" class="st1 st2 st3">a</tspan><tspan x="183.8" y="126" class="st1 st2">te to con</tspan><tspan x="255.8" y="126" class="st1 st2">t</tspan><tspan x="264.3" y="126" class="st1 st2">a</tspan><tspan x="273.2" y="126" class="st1 st2">c</tspan><tspan x="281.9" y="126" class="st1 st2">t </tspan><tspan x="0" y="151.2" class="st1 st2">me.</tspan></text>
</svg>
