<svg id="Layer_1" data-name="Layer 1" xmlns="http://www.w3.org/2000/svg" viewBox="0 0 256.66 115.74"><defs><style>.cls-1,.cls-2,.cls-5{fill:#231f20;}.cls-1,.cls-2,.cls-3,.cls-4{stroke:#231f20;stroke-miterlimit:10;}.cls-1{stroke-width:2.13px;}.cls-2{stroke-width:1.92px;}.cls-3,.cls-4{fill:none;}.cls-3{stroke-width:2.05px;}.cls-4{stroke-width:1.05px;}</style></defs><title>troy-logo</title><path class="cls-1" d="M93,70.65a13.11,13.11,0,0,0-4.71-3.37,48.09,48.09,0,0,0-7.87-2.82q-2.72-.75-5.78-1.34t-6.36-1q-3.31-.43-6.78-.69t-7-.3q-3.81,0-7.44.2l-.4.71q-1.08,1.9-2.52,4.6t-3.07,5.85L37.71,79q-1.74,3.37-3.38,6.6l-3.13,6.14q-1.48,2.9-2.59,5.11l-1.77,3.53q-.66,1.32-.69,1.35v0a1.07,1.07,0,0,1-.31.42.39.39,0,0,1-.32.09.36.36,0,0,1-.23-.23,1,1,0,0,1,0-.58s.22-.49.65-1.35l1.74-3.46q1.09-2.17,2.56-5l3.11-6.09,3.38-6.6q1.74-3.38,3.41-6.57l3.15-6q1.48-2.8,2.64-4.89-2.42.2-4.66.46T37,62.46q-2.63.49-5.06,1.18a44.15,44.15,0,0,0-4.5,1.55A30.62,30.62,0,0,0,23.66,67a16,16,0,0,0-2.86,2.07.35.35,0,0,1-.29.13.5.5,0,0,1-.3-.15.5.5,0,0,1-.17-.41.57.57,0,0,1,.07-.26,1.27,1.27,0,0,1,.15-.23A16.63,16.63,0,0,1,23.15,66a27.26,27.26,0,0,1,3.79-1.9,40.38,40.38,0,0,1,4.55-1.55q2.45-.68,5.14-1.2,2.26-.39,4.76-.69t5.21-.45q.91-1.61,1.73-2.94T49.82,55a17.41,17.41,0,0,1,1.11-1.49q.45-.53.66-.53a.67.67,0,0,1,.33.1.45.45,0,0,1,.17.42c0,.17,0,.26,0,.26s-.08.05-.17.16-.19.19-.36.38-.41.51-.73,1-.73,1.07-1.22,1.85-1.1,1.8-1.81,3q1.66-.08,3.35-.12t3.43,0q3.41,0,6.88.28t6.8.64q3.33.4,6.45,1t5.87,1.31a44.9,44.9,0,0,1,8.31,3,13.31,13.31,0,0,1,4.91,3.69.53.53,0,0,1,.14.49.8.8,0,0,1-.2.35.47.47,0,0,1-.29.14Q93.22,70.88,93,70.65Z" transform="translate(-11.46 -19.7)"/><path class="cls-2" d="M69,88.48a2,2,0,0,1-.43-2.25,11.29,11.29,0,0,1,2.2-3.64A33.68,33.68,0,0,1,74,79.27q2-1.8,4.2-3.51t4.61-3.23A39.27,39.27,0,0,1,87.32,70a15.73,15.73,0,0,1,3.76-1.29,3,3,0,0,1,2.49.39,1.57,1.57,0,0,1,.27.31,2.25,2.25,0,0,1,.25.47,1.37,1.37,0,0,1,.1.53.82.82,0,0,1-.21.51q-.52.64-.9.32a1.05,1.05,0,0,1-.3-.54,1,1,0,0,1-.08-.18.38.38,0,0,0-.13-.17,2.25,2.25,0,0,0-1.79-.26,12.79,12.79,0,0,0-2.93.91,32.64,32.64,0,0,0-3.71,1.9q-2,1.18-4.15,2.69-2.54,1.88-4.78,3.89a38.11,38.11,0,0,0-3.63,3.65,10,10,0,0,0-1.67,2.6q-.41,1.08.14,1.54a6.27,6.27,0,0,0,2.71.93,49.76,49.76,0,0,0,5.36.56q3.91.2,8.73.2t9.74,0l4.29,0h4.21q2,0,3.89.06l3.37.11a37.1,37.1,0,0,1,4.69.51,5.66,5.66,0,0,1,2.38.86,1.21,1.21,0,0,1,.42.76,1,1,0,0,1-.24.87.89.89,0,0,1-.49.34.44.44,0,0,1-.36,0,.33.33,0,0,1-.12-.33.41.41,0,0,0-.05-.13,1,1,0,0,0-.19-.18A5.68,5.68,0,0,0,116.3,91a34.12,34.12,0,0,0-4.61-.54q-3.27-.2-7.63-.21t-9,0q-2.3,0-4.67,0t-4.65,0q-2.28,0-4.39-.05t-3.9-.16Q70.58,89.75,69,88.48Z" transform="translate(-11.46 -19.7)"/><ellipse class="cls-3" cx="58.48" cy="57.87" rx="51.68" ry="51.13"/><ellipse class="cls-4" cx="58.48" cy="57.87" rx="57.96" ry="57.35"/><path class="cls-5" d="M146.84,57.14V69.38h-2.15V57.14h-3.28v-2h8.7v2Z" transform="translate(-11.46 -19.7)"/><path class="cls-5" d="M157.8,63.3l4.41,6.08h-2.63l-4.07-5.84h-.39v5.84H153V55.12h2.52a6.3,6.3,0,0,1,4.08,1.06A3.9,3.9,0,0,1,161,59.3a4.05,4.05,0,0,1-.87,2.6A3.87,3.87,0,0,1,157.8,63.3Zm-2.68-1.63h.68q3.06,0,3.06-2.34t-3-2.19h-.77Z" transform="translate(-11.46 -19.7)"/><path class="cls-5" d="M164.27,62.19A7,7,0,0,1,166.48,57a7.26,7.26,0,0,1,5.28-2.16,7.46,7.46,0,0,1,7.42,7.42,7,7,0,0,1-2.2,5.22,7.53,7.53,0,0,1-10.29.24A7,7,0,0,1,164.27,62.19Zm2.17,0a5.28,5.28,0,0,0,9,3.86,5.53,5.53,0,0,0,0-7.64,5.32,5.32,0,0,0-7.51,0A5.14,5.14,0,0,0,166.44,62.21Z" transform="translate(-11.46 -19.7)"/><path class="cls-5" d="M184.93,63.22l-4.65-8.1h2.47l3.26,5.7,3.27-5.7h2.47l-4.67,8.1v6.16h-2.15Z" transform="translate(-11.46 -19.7)"/><path class="cls-5" d="M211.66,55.88v2.54a6,6,0,0,0-3.86-1.56,4.91,4.91,0,0,0-3.7,1.58,5.32,5.32,0,0,0-1.51,3.84,5.2,5.2,0,0,0,1.51,3.79,5,5,0,0,0,3.71,1.54,4.55,4.55,0,0,0,1.93-.37,5.57,5.57,0,0,0,.92-.5,10.86,10.86,0,0,0,1-.76v2.6a7.74,7.74,0,0,1-3.88,1,7.16,7.16,0,0,1-5.22-2.13,7.07,7.07,0,0,1-2.15-5.19,7.32,7.32,0,0,1,1.8-4.86A7.17,7.17,0,0,1,208,54.84,7.3,7.3,0,0,1,211.66,55.88Z" transform="translate(-11.46 -19.7)"/><path class="cls-5" d="M217.48,55.12V63.7a4.72,4.72,0,0,0,.6,2.69,3.21,3.21,0,0,0,5.05,0,4.64,4.64,0,0,0,.6-2.69V55.12h2.15V64.3a5.14,5.14,0,0,1-1.4,3.71,5.43,5.43,0,0,1-7.75,0,5.14,5.14,0,0,1-1.4-3.71V55.12Z" transform="translate(-11.46 -19.7)"/><path class="cls-5" d="M235.07,63.3l4.41,6.08h-2.63l-4.07-5.84h-.39v5.84h-2.15V55.12h2.52a6.3,6.3,0,0,1,4.08,1.06,3.9,3.9,0,0,1,1.39,3.12,4.05,4.05,0,0,1-.87,2.6A3.87,3.87,0,0,1,235.07,63.3Zm-2.68-1.63h.68q3.06,0,3.06-2.34t-3-2.19h-.77Z" transform="translate(-11.46 -19.7)"/><path class="cls-5" d="M246.34,57.14V69.38h-2.15V57.14h-3.28v-2h8.7v2Z" transform="translate(-11.46 -19.7)"/><path class="cls-5" d="M254.63,55.12V69.38h-2.15V55.12Z" transform="translate(-11.46 -19.7)"/><path class="cls-5" d="M267.06,57.24l-1.75,1a3,3,0,0,0-.93-1.11,2.18,2.18,0,0,0-1.19-.3,2.2,2.2,0,0,0-1.49.51,1.58,1.58,0,0,0-.59,1.26q0,1,1.55,1.68l1.42.58a6.07,6.07,0,0,1,2.54,1.71,3.87,3.87,0,0,1,.8,2.48,4.36,4.36,0,0,1-1.31,3.25,4.5,4.5,0,0,1-3.28,1.29,4.37,4.37,0,0,1-3.07-1.1,5.08,5.08,0,0,1-1.49-3.1l2.18-.48a3.71,3.71,0,0,0,.52,1.74,2.46,2.46,0,0,0,3.61.25,2.33,2.33,0,0,0,.66-1.71,2.39,2.39,0,0,0-.12-.76,1.93,1.93,0,0,0-.36-.64,2.89,2.89,0,0,0-.63-.54,6.14,6.14,0,0,0-.92-.48l-1.38-.57q-2.93-1.24-2.93-3.62a3.43,3.43,0,0,1,1.23-2.69,4.44,4.44,0,0,1,3.06-1.09A4.27,4.27,0,0,1,267.06,57.24Z" transform="translate(-11.46 -19.7)"/><path class="cls-5" d="M144.41,83.47v4.82h-1.79V76.41h2a9.16,9.16,0,0,1,2.25.21,3,3,0,0,1,1.35.78,3.38,3.38,0,0,1,1,2.52,3.26,3.26,0,0,1-1.09,2.59,4.32,4.32,0,0,1-2.95,1Zm0-1.66h.67q2.47,0,2.47-1.9T145,78.06h-.59Z" transform="translate(-11.46 -19.7)"/><path class="cls-5" d="M153.71,81.06h5.12V76.41h1.79V88.29h-1.79V82.74h-5.12v5.55h-1.79V76.41h1.79Z" transform="translate(-11.46 -19.7)"/><path class="cls-5" d="M163.67,82.3A5.82,5.82,0,0,1,165.51,78a6.05,6.05,0,0,1,4.4-1.8,6.21,6.21,0,0,1,6.18,6.18,5.84,5.84,0,0,1-1.83,4.35,6.28,6.28,0,0,1-8.57.2A5.84,5.84,0,0,1,163.67,82.3Zm1.81,0A4.4,4.4,0,0,0,173,85.53a4.6,4.6,0,0,0,0-6.37,4.43,4.43,0,0,0-6.26,0A4.28,4.28,0,0,0,165.48,82.32Z" transform="translate(-11.46 -19.7)"/><path class="cls-5" d="M182,78.09v10.2H180.2V78.09h-2.73V76.41h7.25v1.69Z" transform="translate(-11.46 -19.7)"/><path class="cls-5" d="M186.13,82.3A5.82,5.82,0,0,1,188,78a6.05,6.05,0,0,1,4.4-1.8,6.21,6.21,0,0,1,6.18,6.18,5.84,5.84,0,0,1-1.83,4.35,6.28,6.28,0,0,1-8.57.2A5.84,5.84,0,0,1,186.13,82.3Zm1.81,0a4.4,4.4,0,0,0,7.52,3.21,4.6,4.6,0,0,0,0-6.37,4.43,4.43,0,0,0-6.26,0A4.28,4.28,0,0,0,187.94,82.32Z" transform="translate(-11.46 -19.7)"/><path class="cls-5" d="M207.71,82.1h4.91v.39a8.11,8.11,0,0,1-.32,2.37,5,5,0,0,1-1,1.79,5.38,5.38,0,0,1-4.21,1.86,5.79,5.79,0,0,1-4.27-1.8,6.19,6.19,0,0,1,4.43-10.53,6,6,0,0,1,2.6.57,7.48,7.48,0,0,1,2.27,1.84l-1.28,1.22a4.34,4.34,0,0,0-3.56-1.95,4.26,4.26,0,0,0-3.16,1.3,4.34,4.34,0,0,0-1.28,3.2,4.46,4.46,0,0,0,4.31,4.46,3.59,3.59,0,0,0,2.38-.89,3.16,3.16,0,0,0,1.18-2.15h-3Z" transform="translate(-11.46 -19.7)"/><path class="cls-5" d="M219.68,83.23l3.68,5.06h-2.19l-3.39-4.86h-.32v4.86h-1.79V76.41h2.1a5.25,5.25,0,0,1,3.4.88,3.25,3.25,0,0,1,1.15,2.6,3.38,3.38,0,0,1-.72,2.17A3.22,3.22,0,0,1,219.68,83.23Zm-2.23-1.36H218q2.55,0,2.55-1.95t-2.48-1.82h-.64Z" transform="translate(-11.46 -19.7)"/><path class="cls-5" d="M232.92,85.4h-5.09l-1.32,2.89h-1.93l5.88-12.63,5.67,12.63h-2Zm-.73-1.69-1.76-4-1.85,4Z" transform="translate(-11.46 -19.7)"/><path class="cls-5" d="M240.19,83.47v4.82H238.4V76.41h2a9.16,9.16,0,0,1,2.25.21,3,3,0,0,1,1.35.78,3.38,3.38,0,0,1,1,2.52A3.26,3.26,0,0,1,244,82.51a4.32,4.32,0,0,1-2.95,1Zm0-1.66h.67q2.47,0,2.47-1.9t-2.55-1.84h-.59Z" transform="translate(-11.46 -19.7)"/><path class="cls-5" d="M249.49,81.06h5.12V76.41h1.79V88.29h-1.79V82.74h-5.12v5.55H247.7V76.41h1.79Z" transform="translate(-11.46 -19.7)"/><path class="cls-5" d="M262.44,83.16l-3.88-6.75h2.06l2.72,4.75,2.72-4.75h2.06l-3.89,6.75v5.13h-1.79Z" transform="translate(-11.46 -19.7)"/></svg>