<?xml version="1.0" encoding="utf-8"?>
<!-- Generator: Adobe Illustrator 23.0.1, SVG Export Plug-In . SVG Version: 6.00 Build 0)  -->
<svg version="1.1" id="Layer_1" xmlns="http://www.w3.org/2000/svg" xmlns:xlink="http://www.w3.org/1999/xlink" x="0px" y="0px"
	 viewBox="0 0 209.6 209.6" style="enable-background:new 0 0 209.6 209.6;" xml:space="preserve">
<style type="text/css">
	.st0{fill:#09D1CB;}
	.st1{fill:#724732;}
	.st2{fill:#1F252E;}
	.st3{display:none;opacity:0.64;fill:#1F252E;}
	.st4{fill:#4C47BD;}
	.st5{fill:#E1AA82;}
	.st6{fill:none;stroke:#4B2716;stroke-miterlimit:10;}
	.st7{fill:#EABEA4;}
	.st8{fill:#7B838C;}
	.st9{fill:#B97760;}
	.st10{fill:#2B1C0B;}
	.st11{opacity:0.18;fill:none;stroke:#F7DCD7;stroke-miterlimit:10;}
	.st12{fill:#F7BF9E;}
	.st13{fill:#161616;}
	.st14{fill:#94231E;}
	.st15{fill:#D32D25;}
	.st16{fill:#78574D;}
	.st17{fill:#562D20;}
</style>
<title>shannon</title>
<path class="st0" d="M104.8,209.1c-57.6,0-104.3-46.7-104.3-104.3S47.2,0.5,104.8,0.5s104.3,46.7,104.3,104.3l0,0
	C209,162.4,162.4,209.1,104.8,209.1z"/>
<path class="st1" d="M72.9,96.9c0,0-0.6,3.8-4.3,8.5s-12.7,16.2-8,21.6c0,0,3.2,8.4,10.2,13.3c0,0,4,12.9-2.7,15.7
	c0,0,11.3,14,9.2,20.8c-2,6.8,0.2,9.6,0.2,9.6s-0.8-6,1.8-8.3c0,0,0.8,0.3,0,4.7c0,0,18.8-26.6,19.1-36.4c0.3-9.8-12.3-32-12.3-32
	L75.7,97.2L72.9,96.9z"/>
<path class="st2" d="M66.4,129c0,0-28.5-5-9.1,69.9c0,0,49.2,27.7,105.7-7.2c0,0,5.6-72.5-34.9-59.3c0,0-16.1,27.9-29.1,21.2
	C86,146.9,66.4,129,66.4,129z"/>
<circle class="st3" cx="104.8" cy="104.8" r="98.6"/>
<path class="st4" d="M93.4,209.5c-0.5,0-0.9,0-1.1,0c0.3,0,0.8,0,1.4,0.1C93.5,209.6,93.5,209.5,93.4,209.5z"/>
<path class="st4" d="M104.5,209.8L104.5,209.8C104.9,209.8,104.8,209.8,104.5,209.8z"/>
<path class="st4" d="M97.7,209.8c0,0,0.8,0,1.5,0h1.5h1.1h-2.1c-0.6,0-1,0-1.4,0H97.7z"/>
<path class="st4" d="M201.6,151.9c-0.1,0.3-0.2,0.6-0.3,0.8C201.5,152.3,201.5,152.1,201.6,151.9z"/>
<path class="st4" d="M212.6,63.5c-0.1-0.5-0.2-0.9-0.5-1.6C211.9,61.3,212.3,62.3,212.6,63.5z"/>
<path class="st4" d="M198,158.3L198,158.3L198,158.3z"/>
<path class="st4" d="M207.2,48.1l-0.2,0.1C207.2,48.3,207.3,48.3,207.2,48.1z"/>
<path class="st4" d="M172.3,31.8l0.6,0.6C172.7,32.2,172.5,32,172.3,31.8z"/>
<path class="st4" d="M126.7,8.3l-1.1-0.4l-0.8-0.3l-0.3-0.1l0.2,0.3C125.3,7.9,126,8,126.7,8.3z"/>
<path class="st4" d="M124.7,7.8c-0.5-0.1-0.9-0.1-1.3-0.1C123.8,7.7,124.2,7.8,124.7,7.8L124.7,7.8z"/>
<path class="st4" d="M77.2,9.8c-0.8,0.2-1.6,0.4-2.4,0.7C75.6,10.4,76.5,10.1,77.2,9.8z"/>
<path class="st4" d="M74.8,10.7l0.6-0.1c0.3-0.1,0.6-0.1,0.6-0.1l0.1-0.1l-0.6,0.2L74.8,10.7z"/>
<path class="st4" d="M26,57L26,57C26.1,57.3,26.1,57.1,26,57z"/>
<image style="display:none;overflow:visible;enable-background:new    ;" width="1010" height="1010" xlink:href="../../../Downloads/43275577_2058061967590500_8426357107514671104_o.jpg"  transform="matrix(0.1657 0 0 0.1657 16.7588 22.22)">
</image>
<image style="display:none;overflow:visible;opacity:0.64;" width="1152" height="1008" xlink:href="../../Screen Shot 2019-02-03 at 12.00.15 PM.png"  transform="matrix(0.1687 0 0 0.1687 11.172 14.6478)">
</image>
<path class="st5" d="M86.1,114.4L85,132.8L66.4,129c0,0,14.3,25.1,31.4,27.4c17.1,2.4,29.3-18.9,30.4-24l-15-3.4l-0.4-6.6
	c0,0,19.1-17.6,19.1-29.8s-4.3-33.4-16.9-27.9L86.5,50.5c0,0-8.7,16.7-15.8,25.7c0,0-5.4,0.2-4.3,8.4s3.4,12.9,9.3,12.6
	C75.7,97.2,77.3,110.9,86.1,114.4z"/>
<path class="st5" d="M114.3,42.8c0,0-39.3-19.3-43.6,33.4L99,56.7l15.8,7.9c0,0,17.1,9.4,16.9,27.9
	C131.8,92.5,134.1,41.4,114.3,42.8z"/>
<circle class="st6" cx="89.7" cy="81.1" r="3.9"/>
<circle class="st6" cx="121.3" cy="80.5" r="3.4"/>
<circle class="st7" cx="87.8" cy="96.3" r="9.5"/>
<circle class="st7" cx="121.3" cy="95.9" r="9.5"/>
<path d="M77.8,80.2c0,0,1.1,1,2.3,1s-0.4-2-0.4-2l1.4,0.5c0,0,4.6-7,14.1-0.9c0,0-9.3-2.7-14.8,3.5C80.4,82.2,78.3,82.2,77.8,80.2z"
	/>
<path d="M80.5,83.1l1.7-1.2c0,0,3,2.2,6.1,3.3c0,0-4.7-0.4-6-2C82.3,83.3,81.7,83.7,80.5,83.1z"/>
<path d="M133.4,79.5c0,0-1.1,1-2.3,1c-1.1,0,0.4-2,0.4-2l-1.4,0.5c0,0-4.6-7-14.1-0.9c0,0,9.3-2.7,14.8,3.5
	C130.8,81.5,132.9,81.6,133.4,79.5z"/>
<path d="M130.7,82.5l-1.7-1.2c0,0-3,2.2-6.1,3.3c0,0,4.7-0.4,6-2C128.9,82.6,129.5,83.1,130.7,82.5z"/>
<circle class="st8" cx="73.2" cy="94.3" r="1.3"/>
<path class="st1" d="M107.7,83c0,0-0.9,13.1,1.2,16.5C108.9,99.5,108.5,97.4,107.7,83z"/>
<path class="st1" d="M103.3,99.5c0,0,0.3,3,3.7,3c3.4,0,3.7-2.5,3.7-2.5S106.6,100.6,103.3,99.5z"/>
<path class="st1" d="M71.6,85.9c0,0-2.6,2.2,0.2,6.6C71.9,92.4,70.6,88.9,71.6,85.9z"/>
<path class="st9" d="M69.7,91.3c0,0-1-5.3,0-5.9c1-0.6,2.9-2.2,2.2-4.3c-0.7-2.1-2.9-2.7-4-0.8C66.7,82.3,67.6,88.4,69.7,91.3z"/>
<path class="st10" d="M75.1,71.9c0,0,1.4-3.6,6.5-2.4s17.5,2.2,18.1,1.1c0.6-1.1-0.3-4.7-10.9-5.1C78.2,65.1,76.3,67.7,75.1,71.9z"
	/>
<path class="st10" d="M133.7,71.4c0,0-1.4-3.6-6.5-2.4c-5.2,1.2-17.5,2.2-18.1,1.1c-0.6-1.1,0.3-4.7,10.9-5.1
	C130.6,64.7,132.5,67.3,133.7,71.4z"/>
<ellipse class="st11" cx="86.9" cy="81.6" rx="10.7" ry="11.3"/>
<ellipse class="st11" cx="124.7" cy="80.6" rx="10.7" ry="11.3"/>
<path class="st12" d="M114.3,99.5c0,0,3.5,6,10.3,4c6.9-1.9,3.6-12.3,3.6-12.3S130.2,110.6,114.3,99.5z"/>
<path class="st13" d="M87,67.8c-7.2,0-13,6.2-13,13.8s5.8,13.8,13,13.8s13-6.2,13-13.8S94.2,67.8,87,67.8z M86.9,92.9
	c-5.9,0-10.7-5.1-10.7-11.3c0-6.2,4.8-11.3,10.7-11.3c5.9,0,10.7,5.1,10.7,11.3C97.6,87.8,92.8,92.9,86.9,92.9z"/>
<path class="st13" d="M124.7,66.8c-7.2,0-13,6.2-13,13.8c0,7.6,5.8,13.8,13,13.8c7.2,0,13-6.2,13-13.8
	C137.8,73,131.9,66.8,124.7,66.8z M124.7,91.9c-5.9,0-10.7-5.1-10.7-11.3c0-6.2,4.8-11.3,10.7-11.3c5.9,0,10.7,5.1,10.7,11.3
	C135.4,86.9,130.6,91.9,124.7,91.9z"/>
<path class="st13" d="M99.1,80.3c0,0,5.5-3.9,13.6-0.8l-0.2,2.5c0,0-6.1-3.2-13,0.8L99.1,80.3z"/>
<polygon class="st13" points="70.7,76.2 74.6,81.3 75.5,78.3 71.2,74.1 "/>
<path class="st14" d="M96.9,106.3c0,0,0.6,1.7,2.4,1.8c0,0,4.1,5.9,11.5,3.3c0,0,2.1-0.6,3.8-3.6l0.3-0.9c0,0,0.7,0.6,2.4-1.2
	c0,0-4,1.1-6.8-0.4s-2.9,0.7-2.9,0.7s0.2-4.1-7.1,0.9C100.4,107,99.7,108,96.9,106.3z"/>
<path class="st15" d="M107.8,107.7c0,0,0-1.8-1.2-1.7c-1.1,0.2-4.8,1.6-6.3,1.7c-0.1,0-0.1,0-0.2,0c0.9,0.3,2.1,0.3,3,0.4
	c1.2,0.1,2.9,0.1,4.1,0.6c0.5,0.2,0.6,0.3,1-0.1c0.4-0.4,0.7-0.7,1.2-0.9c0.7-0.2,1.4-0.2,2.1-0.3c0.9-0.1,1.8-0.1,2.7-0.2
	c0,0-3.5-1-4.4-1.5C109,105.4,107.7,106.5,107.8,107.7z"/>
<path class="st15" d="M100.2,107.8c0,0,3.1,4.4,7.8,4.1c4.7-0.3,6.4-4.6,6.4-4.6l-4.7-0.3l-1.8,0.8l-1.9-0.4L100.2,107.8z"/>
<circle class="st16" cx="89.7" cy="81.1" r="3.5"/>
<circle class="st16" cx="121.3" cy="80.5" r="2.9"/>
<circle class="st17" cx="89.7" cy="81.1" r="1.4"/>
<circle class="st17" cx="121.3" cy="80.5" r="1.4"/>
<path class="st9" d="M95.5,107.6c0,0,0-2,1.1-2.5c0,0-3-1.2-3.7,1.6c0,0,0.7-1,1.8-0.9C94.8,105.8,94.1,106.6,95.5,107.6z"/>
<polygon class="st1" points="86.1,114.4 81,126.4 85.2,129.5 "/>
<path class="st1" d="M114.3,42.8c0,0-32.5,25.2-43.8,30.1c0,0,0.6-15,8.4-25.2C85.2,39.8,95.9,34.9,114.3,42.8z"/>
<path class="st1" d="M81,33.5c0,0-17.3-6.4-16,22.3l3.3,21.4l2.4-1l0.9-3.8c0,0,21.6-10,42.7-29.6c0,0,12.7-2.8,16.1,24l1.5,14.5
	c0,0,9.8-7.2,8.2-22c0,0,2.4-2.4-0.5-10.8s-15.7-27.8-34.9-26.9S81,33.5,81,33.5z"/>
<image style="display:none;overflow:visible;opacity:0.57;" width="572" height="880" xlink:href="../../Screen Shot 2019-02-03 at 2.21.56 PM.png"  transform="matrix(0.1632 0 0 0.1632 53.4619 35.0685)">
</image>
<path class="st12" d="M79.5,98.4c0,0,5.9,11.7,15.3,1.9C94.8,100.3,86.6,107.8,79.5,98.4z"/>
<image style="display:none;overflow:visible;opacity:0.13;" width="1294" height="586" xlink:href="../../Screen Shot 2019-02-03 at 2.29.13 PM.png"  transform="matrix(0.1331 0 0 0.1331 25.9724 137.7507)">
</image>
<path class="st2" d="M27.5,166.6c0,0,2,23.3,29.8,32.2C57.3,198.9,34.8,190.4,27.5,166.6z"/>
<path class="st2" d="M27.5,166.6c0,0-0.6-6,3.7-6.8C31.1,159.8,33,164.4,27.5,166.6z"/>
<path class="st2" d="M29.8,173.7c0,0-1.4-5.5,3.7-8.1C33.5,165.6,35.7,170.6,29.8,173.7z"/>
<path class="st2" d="M35.1,179.3c0,0-2.8-3.9,0.8-7.5C36,171.8,39.5,176,35.1,179.3z"/>
<path class="st2" d="M39.3,184.4c0,0-3.3-5.3,1.7-10C41,174.4,44.8,180,39.3,184.4z"/>
<path class="st2" d="M24.1,178.1c0,0,1.5,4.2,8.1,2.6C32.2,180.7,29.4,176.6,24.1,178.1z"/>
<path class="st2" d="M30.9,187.3c0,0,2.6,3.4,8.8,3.3C39.8,190.6,37.5,185.9,30.9,187.3z"/>
<path class="st2" d="M27,160.7c0,0-3.2-2-2.2-5.1C24.8,155.6,27.5,156.6,27,160.7z"/>
<path class="st2" d="M22.8,162.1c0,0,0,4,4,4.5C26.8,166.6,26.6,162.1,22.8,162.1z"/>
<path class="st2" d="M20,169.6c0,0,2.9,4.2,8.2,3.6C28.1,173.2,28.4,166.8,20,169.6z"/>
<path class="st0" d="M20.8,169.9c0,0,2.4,2.9,6.6,2.8C27.4,172.6,26.7,168.6,20.8,169.9z"/>
<path class="st2" d="M45.3,190.6c0,0-4.5-8.2,2.4-12.5C47.7,178.1,53.7,185.8,45.3,190.6z"/>
<path class="st0" d="M45.5,189.2c0,0-2.4-6.9,1.9-9.5C47.4,179.7,50.1,186.1,45.5,189.2z"/>
<path class="st2" d="M190,156c0,0,0.2,23.4-26.6,35C163.4,191,185,180.4,190,156z"/>
<path class="st2" d="M190,156c0,0,0-6-4.3-6.4C185.7,149.6,184.3,154.4,190,156z"/>
<path class="st2" d="M188.4,163.3c0,0,0.9-5.6-4.5-7.7C183.9,155.6,182.2,160.8,188.4,163.3z"/>
<path class="st2" d="M183.6,169.4c0,0,2.4-4.1-1.6-7.4C182.1,162,178.9,166.6,183.6,169.4z"/>
<path class="st2" d="M180,174.9c0,0,2.8-5.6-2.6-9.8C177.4,165.1,174,171,180,174.9z"/>
<path class="st2" d="M194.5,167.1c0,0-1.1,4.3-7.8,3.3C186.7,170.5,189.1,166.1,194.5,167.1z"/>
<path class="st2" d="M188.6,176.9c0,0-2.3,3.6-8.5,4.1C180.1,181.1,181.9,176.2,188.6,176.9z"/>
<path class="st2" d="M189.9,150.1c0,0,3-2.3,1.7-5.2C191.6,144.8,189,146.1,189.9,150.1z"/>
<path class="st2" d="M194.3,151.1c0,0,0.4,4-3.5,4.9C190.7,156,190.5,151.4,194.3,151.1z"/>
<path class="st2" d="M197.8,158.3c0,0-2.5,4.5-7.8,4.4C190,162.7,189.1,156.4,197.8,158.3z"/>
<path class="st0" d="M197,158.6c0,0-2.1,3.1-6.4,3.4C190.6,162,191,158,197,158.6z"/>
<path class="st2" d="M174.6,181.6c0,0,3.7-8.6-3.6-12.2C171,169.4,165.8,177.7,174.6,181.6z"/>
<path class="st0" d="M174.3,180.2c0,0,1.7-7.1-2.8-9.3C171.5,171,169.3,177.6,174.3,180.2z"/>
</svg>
