<?xml version="1.0" encoding="utf-8"?>
<!-- Generator: Adobe Illustrator 23.0.1, SVG Export Plug-In . SVG Version: 6.00 Build 0)  -->
<svg version="1.1" id="Layer_1" xmlns="http://www.w3.org/2000/svg" xmlns:xlink="http://www.w3.org/1999/xlink" x="0px" y="0px"
	 viewBox="0 0 209.6 209.6" style="enable-background:new 0 0 209.6 209.6;" xml:space="preserve">
<style type="text/css">
	.st0{fill:none;stroke:#4C47BD;stroke-miterlimit:10;}
	.st1{fill:#4C47BD;}
</style>
<title>shannon</title>
<path class="st0" d="M104.8,209.1c-57.6,0-104.3-46.7-104.3-104.3S47.2,0.5,104.8,0.5s104.3,46.7,104.3,104.3c0,0,0,0,0,0
	C209,162.4,162.4,209.1,104.8,209.1z"/>
<circle class="st1" cx="104.8" cy="104.8" r="98.6"/>
<path class="st1" d="M6.8,116.4c-0.2-0.2-0.3-0.5-0.4-0.5C6.6,116.2,6.9,117.6,6.8,116.4z"/>
<path class="st1" d="M7.1,118.2c0.2,1.8-0.3,0-0.3,0.2l0.4,1c0.2,0.5,0.4,1,0.4,1s-0.1-0.6-0.2-1.1L7.1,118.2z"/>
<path class="st1" d="M8.4,125.8l0.2,0.8C8.6,126.3,8.5,126,8.4,125.8z"/>
<path class="st1" d="M9.3,129.4c-0.1-1-0.3-1.9-0.7-2.9v0.1c0.1,1.1-0.4,0.2-0.8-1.5s0-1.7-0.5-3.2l0.1,2.2
	C7.9,126,8.5,127.8,9.3,129.4z"/>
<path class="st1" d="M8.4,125.8c-0.1-0.3-0.2-0.6-0.2-1C8.2,125.1,8.3,125.5,8.4,125.8z"/>
<polygon class="st1" points="7.7,121.9 7.5,121 7.4,121.3 "/>
<path class="st1" d="M11.1,135.5c-0.6-0.3-1.3-4.4-1.7-4.7c0.7,2.4,0.9,4.4,0.6,4l1,2.6C11.4,138.2,11.4,136.9,11.1,135.5z"/>
<path class="st1" d="M11.9,141c0.1,0.2,0.2,0.4,0.3,0.6C12.1,141.4,12,141.2,11.9,141z"/>
<polygon class="st1" points="18.3,153.9 18.3,154.3 18.4,153.9 "/>
<path class="st1" d="M22.5,159.6l-2.1-2.7c-0.1-0.3-0.2-0.5-0.2-0.8c0,0.2-0.6-0.5-0.6-0.4c0.4,1.6,2.3,3.4,3.4,4.9
	c2.6,4-0.3,0,0.4,1.7c-0.8-1.1-0.8-1.2-1.7-2.8c1.3,2.5,3,4.8,5.1,6.9c-0.3-0.5-0.6-1-1-1.4l1.3,1.4c-0.5-0.9-1.1-1.8-1.7-2.7
	C24.7,162.7,23.8,161.4,22.5,159.6z"/>
<path class="st1" d="M20.1,155.3c0.3,0.7,0.5,1.5,0.7,2.3C20.7,156.7,20.5,155.9,20.1,155.3z"/>
<path class="st1" d="M27.3,167.2c-0.2-0.3-0.4-0.5-0.6-0.8C26.9,166.7,27.1,167,27.3,167.2z"/>
<path class="st1" d="M26.6,165.4l1.4,1.9l-0.4-0.9C27.3,166.2,26.6,165.3,26.6,165.4z"/>
<path class="st1" d="M104.9,204.5c-0.9-0.3-1.9-0.4-2.9-0.3c0.2-0.2,2.6-0.1,3.7-0.3c-2.4-0.1,0-0.3-0.6-0.5c-1.3,0-2.3,0-3.3,0.1
	c-1.1,0.1-2.3,0.1-3.4-0.1c0.1-0.1,0.1-0.2-0.3-0.3c-4.2-0.1-8.4-0.6-12.6-1.5c-3.2-0.8-5.5-1.2-9-2.1c-11.7-3.5-22.7-9.2-32.3-16.8
	l-1.7-0.8c-0.4-0.5-2.3-1.9-1.9-1.9c0.5,0.5,1.1,1,1.7,1.4c-1.2-1.2-2.4-2.3-3.7-3.4c-1.4-1.2-2.8-2.5-3.9-3.7
	c0.2,0.3,0.3,1-0.4,0.3c0.5-0.2-2.7-2.8-2.9-3.9c-2-2.6-0.4,0.2-2.6-2.4c-0.5-0.1,2,2.6,2.3,3.2c-0.9-0.6-1.9-2.4-2.1-2.1
	c3.4,4.3,11,11.1,18,15.7l-0.9-0.3c0.9,0.6,1.9,1.3,3,2l3.4,2.2c1.1,0.8,2.3,1.4,3.2,2.1l2.6,1.7c-0.3-0.3,1.1,0.4,2.5,1.2
	c1.4,0.7,2.9,1.3,2.8,0.9c0.8,0.5,1.7,1,2.6,1.4h0.5c2,0.8,1.6,0.9,3.9,1.9c-1.4-0.9,0.3-0.2,1-0.2c1.3,0.6,2.7,1.2,4.1,1.8l4,1.5
	c-0.4-0.3-0.8-0.5-1.2-0.6c1.6,0.6,1.4,0.2,1.9,0.3c1.6,0.4,1.4,0.6,1.3,0.8c3,0.8,4.4,0.4,6.7,1l-0.7-0.4c0.8,0.1,1.5,0.3,2.2,0.4
	l2.2,0.4l2.3,0.4c0.8,0.1,1.6,0.1,2.5,0.2c1.7,0.5-2.9,0.1-4.3,0c0.7,0.1,2.2,0.4,2.7,0.5l2.8-0.1c1.1,0,2.2-0.1,3.1-0.1
	C99.2,204.3,103.7,204.4,104.9,204.5z"/>
<path class="st1" d="M95.2,204.2c-0.4,0-0.8,0-1,0c0.3,0,0.7,0,1.2,0.1C95.3,204.3,95.3,204.2,95.2,204.2z"/>
<path class="st1" d="M104.9,204.5L104.9,204.5C105.3,204.5,105.2,204.5,104.9,204.5z"/>
<path class="st1" d="M85.1,201.6l0.4,0.1l0.6,0.1L85.1,201.6z"/>
<path class="st1" d="M82.3,202.2c-0.6-0.2-1.5-0.5-2.6-0.9C80,201.5,80.2,201.6,82.3,202.2z"/>
<path class="st1" d="M62.2,194.8c-0.6-0.2-0.3,0-0.8-0.1C62.6,195.3,63.1,195.4,62.2,194.8z"/>
<path class="st1" d="M99,204.5c0,0,0.7,0,1.3,0h1.3h1h-1.8c-0.5,0-0.9,0-1.2,0H99z"/>
<path class="st1" d="M150.6,192.1c-1.1,0.4-2.4,1-3.7,1.7s-2.8,1.3-4.1,1.8c-2.4,1-2.5,1.3-2.6,1.5s-0.1,0.4-2.4,1.2l0.6-0.9
	l-3.8,1.3c-1.4,0.4-2.8,0.8-4.2,1.2s-2.8,0.7-4.1,1.1s-2.5,0.7-3.5,1c-0.4,0-1.3,0,0-0.3c-3.3,0.6-1.5,1.3-6,1.6
	c4.1-0.9-1.4-0.2-0.3-0.8l0.6-0.1l-2.3,0.3l-2.3,0.3c-1.3,0.2-2.5,0.3-3.8,0.3c-0.1,0.2,1.6,0.4-0.9,0.5c1,0,0.6,0.2,0.5,0.4
	l1.7-0.1l1.4-0.1c0.8-0.1,1.6-0.2,2.4-0.3c1.5,0.1-1,0.1,0.5,0.2c0,0,0.5-0.1,1-0.2l1-0.2c1.5-0.1-1.5,0.4,0.8,0.2
	c0.5-0.2,0.9-0.3,1.4-0.4l2.6-0.5l-0.5,0.2c1.4-0.3,3.4-0.6,2.7-0.8h0.9c0.4,0,0.9,0,0.9,0l-0.3-0.2c1.9-0.4,3.3-0.5,4.7-0.7
	c1.9-0.3,3.7-0.9,5.4-1.5c-1.2,0.3-0.1-0.2,0.4-0.4c-2,0.5-2.4,0.9-4.4,1.5c-0.4-0.2,2.8-1.4,0.4-0.9c2.7-0.4,4.8-1.5,6-1.3
	c1.2-0.4,2.4-0.9,3.6-1.4c1-0.5,2.1-0.9,3.6-1.5v0.1c0.2-0.3,0.8-0.5,1.6-0.9c1-0.4,2-0.9,2.8-1.5l-0.8,0.4
	c-0.4,0.2-0.8,0.3-0.8,0.3c0-0.2,0.8-0.6,1.8-1.1c-0.1,0.1-0.1,0.1,0.3,0c0.5-0.5,1.2-0.9,1.8-1.3c0.9-0.5,1.7-1.1,1.9-1.2
	c-1.3,0.8-2.9,1.8-4.5,2.7C149.5,192.8,149.2,192.7,150.6,192.1z"/>
<path class="st1" d="M119.7,203.3c0,0,0.2-0.1,0.5-0.1l0.5-0.2C120.3,203.1,120,203.2,119.7,203.3z"/>
<path class="st1" d="M163.1,184.8c1.7-1.1-0.3,0.5,1.3-0.5c0.8-0.7,0.2-0.4-0.3-0.2s-1.1,0.5-0.4-0.2c1.1-0.8,2.2-1.7,3.2-2.6
	c-0.6,0.7,0,0.7,0.4,0.5c0.6-0.6,2-1.6,3-2.4c-2.7,2,2-1.9-0.4-0.2c0.3-0.5,0.8-1,1.3-1.4c0.6-0.7,1.3-1.3,2-1.8
	c0,0.2-0.7,0.9-1.3,1.4c-0.3,0.7,1.6-1.3,2.2-1.4c0.2-0.3,0.6-0.7,1-1.1l1.2-1.4c0.9-1,1.9-2.1,2.6-3.1c1.6-2,2.6-3.5,1.4-2.6
	c-0.7,0.7-1.4,1.6-2,2.4c2.2-2.4,0.3,0.2,0.2,0.5c-1,1-2.5,2.8-2.3,2.3l1.3-1.8c-5.7,6-12,11.4-18.8,16c0,0,0.8-0.5,1.5-1l1.4-1
	c-0.8,0.8-1.7,1.5-2.6,2.1l0.9-0.3c0.4-0.1,0.9-0.3,0.9-0.3c-0.9,0.6-1.6,1.1-1.7,0.9c-0.9,0.8-0.4,0.6,0.3,0.4
	c-2.2,1.5-2.6,1.6-4.2,2.9c1.3-0.5,2.5-1.3,3.6-2.1c1.2-0.9,2.5-1.8,3.8-2.6L163.1,184.8z"/>
<polygon class="st1" points="155.2,190.4 156,189.6 154.7,190.5 "/>
<path class="st1" d="M156.1,188.6c0.1,0.1-0.4,0.4-0.3,0.5C157.5,188.1,157.3,188.1,156.1,188.6z"/>
<path class="st1" d="M175.9,174.1l1.8-2l-1.2,1.2C176.5,173.4,176.1,173.8,175.9,174.1z"/>
<path class="st1" d="M186.5,159c-1.6,2.7-3.4,5.2-5.5,7.5c-1,1.8,1-0.4,0.7,0.5c1.3-1.6,0.8-1.7,2-3.4c0.7-0.5,1.8-2.6,2.9-4.2
	C186.4,159.6,186.3,159.5,186.5,159z"/>
<path class="st1" d="M193.6,148.7c0.8-1.5,1.2-3.1,1.9-4.3c-0.1,0.7-0.4,1.4-0.7,2.1c0.6-0.4,0.7-1.7,1.7-3.3
	c-0.1,0.1-0.4,0.7-0.3,0.2c0.5-1.1,0.9-2.3,1.3-3.5c0.3-0.8,0.5-1.7,1.6-4.4c0.2-0.8,0.4-1.6,0.1-1.6c1.2-3.1,0.8-1.5,2.1-5.3
	c-0.2,0.1-0.8,1.3-1.1,1.2c0.6-1.7,1.1-3.5,1.4-5.2c0.2-1.3,0.4-2.6,0.8-3.8c-0.1,0.6-0.1,1.2-0.3,1.8c0.5-0.4,0.5-3,0.8-4.9
	l0.4,0.2c0.1-0.9,0.2-2.2,0.3-3.5c0-1.3,0.2-2.6,0.4-3.8l0.1,0.5c0-4.7,0.1-10.2-0.4-14.3l0.1-2.2c-0.5-2.7-0.3-1.4-0.2,0.2
	s0.1,3.3-0.4,1.3c0.3-0.3,0.2-1,0-2.1c-0.3-1.3-0.6-2.6-0.6-3.9c0.1-1.5,0.5,3.1,0.6,1.5c-0.4-0.6-0.3-1.7-0.7-3.3
	c0.4,0.3-0.6-3.5,0-2.5l-0.3-0.9c-0.2-0.5-0.4-1.2-0.6-1.9l-1-2.8c-0.2-1.3-0.5-2.6-1-3.8c0.9,3.1-0.7-0.7,0.1,2.8
	c0.9,3.1,1.7,6.2,2.2,9.4c0.4,1.8,0.5,3.6,0.8,5.4s0.2,3.6,0.4,5.2c0.5,0.7,0.1,4.2,0.5,5.2c-0.1,0.2-0.3,0.6-0.4,0.8
	c0,4.2,0.3-1,0.4,0c0,1.8-0.3,3.3-0.5,3.1c-0.1,3,0.1,0.3,0.3,1.9l-0.6,1.9c-0.1,2.3-0.4,4.8-0.7,7.4s-0.8,5.3-1.4,8
	c-1.2,5.4-3,10.7-5.2,15.8c0,0,0.2-0.1,0.3-0.3l0.3-0.3c-2.1,4.3-2.7,7.7-5.4,11.1l-0.5,1.4c0.3-0.8-0.8,0.5-0.4-0.7
	c-0.5,1.2-1.4,2.3-2.1,3.5l1.4-1.9c-0.5,1.3-1.3,2.4-2.3,3.4c-0.9,1.6-0.5,1.2,0.2,0.4s1.7-2.1,2-2.4c0.6-1.1,1-2,1.4-2.7
	c0.4-0.6,0.8-1.1,1.2-1.7c1.1-1.3,1.9-2.7,2.6-4.2C195.3,146,193.8,148.9,193.6,148.7z"/>
<path class="st1" d="M189.9,153.8c-0.1,0.3-0.2,0.5-0.3,0.7C189.8,154.2,189.8,154,189.9,153.8z"/>
<path class="st1" d="M199.5,76.5c-0.1-0.4-0.2-0.8-0.4-1.4S199.2,75.4,199.5,76.5z"/>
<path class="st1" d="M186.7,159.4L186.7,159.4L186.7,159.4z"/>
<polygon class="st1" points="185.9,161.8 186.7,160.7 186.5,160.8 "/>
<path class="st1" d="M194.8,63l-0.2,0.1C194.8,63.2,194.9,63.2,194.8,63z"/>
<path class="st1" d="M172.3,31.8l0.6,0.6C172.7,32.2,172.5,32,172.3,31.8z"/>
<path class="st1" d="M86.2,7.6c-1.2,0.2-2.7,0.6-4,1l-1.9,0.6c-0.6,0.2-1.1,0.4-1.5,0.6l0.1-0.2c-1.3,0.4-5.4,1.9-2.6,1.4l0.6-0.3
	c0.8-0.4,1.7-0.6,2.6-0.7c0.7,0,1.4-0.1,2.1-0.2c1.4-0.4,2.5-0.8,3.6-1.2c1.1-0.4,2.3-0.7,3.4-0.8c1.2-0.2,1,0,0.7,0.2
	C92,7.5,92.9,7,94.7,6.7c0.4,0.6,2.4,0.4,4.9,0s5.3-0.5,7.2,0c2.5-0.1,5.8,0.2,9,0.3c-1.7,0.1,3,0.4,2.2,0.7c0.6-0.1,1.2-0.1,1.8,0
	c0.9,0.1,2,0.4,3.1,0.6l1.6,0.3c0.5,0.1,1,0.2,1.4,0.3c0.9,0.1,1.5,0.2,1.7,0c2.1,0.6,2.1,0.6,2.2,0.6c0.9,0.2,1.8,0.5,2.7,0.8
	c0,0.1-0.8-0.1-1.2-0.2c0.8,0.3,1.6,0.5,2.4,0.6c0.7,0.1,1.4,0.4,2.1,0.8c3.7,1.3,0.7,0,3,0.5c1.7,0.6,3.3,1.4,4.7,2.5
	c0.5-0.2,2.7,0.9,4.6,1.6c-0.4-0.3-3-1.5-1.2-0.9c2.2,1.1,3,1.5,3.9,1.8c1.3,0.5,2.5,1.1,3.7,1.7c1.8,1.6-3.9-2.2-0.7,0.1
	c-1.3-0.6-2.4-1.2-3.4-1.6c-0.8-0.4-1.7-0.7-2.6-1c3.4,1.7,7.5,3.9,11.1,6.1c1.9,1.3-1.1-0.5,0.4,0.6c1.4,1,2.8,2,4.3,2.9
	c1.3,0.8,2.5,1.7,3.6,2.7l-0.7-0.2c1.4,0.9,2.6,1.9,3.8,3.1l4.5,4.3c-0.2-0.4-0.4-0.7,0-0.4c-0.2,0.2,0.7,1.1,2.1,2.3
	c0.7,0.7,1.4,1.4,2.1,2.1c0.7,0.7,1.3,1.5,1.9,2.4c0.1-0.5,2.6,2.2,4,4.1c0.4,0.7,0.1,0.7,0.1,0.7c-0.6-1.1-1.4-2-2.3-2.8
	c-0.8-0.6-1.6-1.4-2.3-2.1c0.9,0.9,1.9,2.2,2.9,3.5c1,1.3,1.9,2.6,2.6,3.4l-0.8-0.5c0.6,0.9,1.3,1.8,2.1,2.6
	c0.8,0.8,1.4,1.8,1.9,2.8l-0.4-0.2c0.9,1.6,1.9,3.2,2.8,5s1.8,3.4,2.5,5.2l1.1,2.6l1,2.5l1,2.3c0.3,0.8,0.6,1.5,0.9,2.2
	c0.3,0.4-0.2-2.5-0.1-2.7c-0.7-1.6-1.4-2.9-1.9-4s-1.2-2.2-1.9-3.3l0.3-0.1c-0.4-0.5-2-3.3-1.4-1.6c-1.2-1.8-0.5-1.6-1.8-3.7
	c0.4,0,1.1,1.3,1.4,1.2l-0.6-0.9c-0.3-0.5-0.6-0.9-0.6-0.9c0.5,0.5-0.6-1.2-0.1-0.7c-0.9-1.3-1.8-2.7-2.6-4.2
	c-0.4-0.6-0.7-1.3-1.1-2c-0.2-0.3-0.4-0.7-0.7-1.1c-0.2-0.4-0.6-0.8-0.9-1.2l0.6,1c0.3,0.5,0.6,1,0.6,1s-0.3-0.2-0.6-0.6l-1-1.2
	c-0.5-1.2-1.2-2.4-2-3.5c-0.6-0.7-1.2-1.2-1.8-1.7c-0.6-0.6-1.2-1.2-2-2.1c0.6,0.2-2.5-3.3-2.7-3.8c-0.8-0.5-1.4-1.1-2-1.8
	c-0.6-0.6-1.2-1.2-1.9-1.7c-1-0.9-2.3-2.2-2.2-2.3c0.2,0.1,0.5,0.4,0.8,0.7l-0.5-0.5c-0.2-0.2-0.5-0.5-0.5-0.5s0.1,0,0.2,0.1
	c-0.9-0.8-1.1-0.6-2.1-1.7c0.1-0.1,0.7,0.5,1.2,0.9c-2.4-2.2-4.7-3.1-6.5-5c-0.5-0.1-3.6-2.3-3.1-1.5c-0.6-0.9-1.5-1.7-2.5-2.2
	c-0.7-0.3-1.4-0.7-2-1.2c-0.7-0.5-1.5-1-2.3-1.4c2.5,1,0.1-0.1,2.3,0.8c-1.5-1-4.1-2.1-6.9-3.5c-0.2-0.2-0.2-0.3-0.4-0.5
	c-1.2-0.3-2.3-0.8-3.4-1.5v0.3c-1.9-1.1-4.8-2.1-6.8-3.2l-2.7-0.4c-1.8-0.9-3.7-1.5-5.7-1.9c-1.8-0.4-3.6-0.6-5.4-0.7
	c-1.1-0.2-2.2-0.5-3.2-0.8l1.5,0.1c-1-0.2-2-0.4-3-0.6c-0.8-0.2-1.6-0.2-2.4-0.1c-2-0.1-1.4-0.5-2.9-0.7c-2.1,0.1-5-0.3-7.7-0.3
	s-5-0.1-5.6,0.3c0.8,0,2,0,3.4,0s3,0.1,4.6,0.2c-0.8,0.1-0.2,0.3-1.4,0.2c-1.6,0-2.8-0.1-4-0.2s-2.4,0-4,0.1l0.4-0.6
	c-1.3-0.1-2.7,0-4,0.1c-0.7,0.1-1.3,0.1-1.9,0.2S93.6,6.6,93,6.7c-1.2,0.2-2.4,0.4-3.5,0.6C88.4,7.5,87.3,7.6,86.2,7.6z"/>
<path class="st1" d="M126.7,8.3l-1.1-0.4l-0.8-0.3l-0.3-0.1l0.2,0.3C125.3,7.9,126,8,126.7,8.3z"/>
<path class="st1" d="M124.7,7.8c-0.5-0.1-0.9-0.1-1.3-0.1C123.8,7.7,124.2,7.8,124.7,7.8L124.7,7.8z"/>
<path class="st1" d="M77.2,9.8c-0.8,0.2-1.6,0.4-2.4,0.7C75.6,10.4,76.5,10.1,77.2,9.8z"/>
<path class="st1" d="M74.8,10.7l0.6-0.1c0.3-0.1,0.6-0.1,0.6-0.1l0.1-0.1l-0.6,0.2L74.8,10.7z"/>
<path class="st1" d="M36.2,70.8L36.2,70.8C36.3,71,36.3,70.9,36.2,70.8z"/>
<image style="overflow:visible;" width="1010" height="1010" xlink:href="../../../Downloads/43275577_2058061967590500_8426357107514671104_o.jpg"  transform="matrix(0.129 0 0 0.129 35.3038 40.765)">
</image>
</svg>
