<?xml version="1.0" encoding="utf-8"?>
<!-- Generator: Adobe Illustrator 23.0.1, SVG Export Plug-In . SVG Version: 6.00 Build 0)  -->
<svg version="1.1" id="Layer_1" xmlns="http://www.w3.org/2000/svg" xmlns:xlink="http://www.w3.org/1999/xlink" x="0px" y="0px"
	 viewBox="0 0 209.6 209.6" style="enable-background:new 0 0 209.6 209.6;" xml:space="preserve">
<style type="text/css">
	.st0{fill:#F9B03A;}
	.st1{fill:#724732;}
	.st2{fill:#1F252E;}
	.st3{display:none;opacity:0.64;fill:#1F252E;}
	.st4{fill:#4C47BD;}
	.st5{fill:#E1AA82;}
	.st6{fill:none;stroke:#4B2716;stroke-miterlimit:10;}
	.st7{fill:#EABEA4;}
	.st8{fill:#7B838C;}
	.st9{fill:#B97760;}
	.st10{fill:#2B1C0B;}
	.st11{opacity:0.18;fill:none;stroke:#F7DCD7;stroke-miterlimit:10;}
	.st12{fill:#F7BF9E;}
	.st13{fill:#161616;}
	.st14{fill:#94231E;}
	.st15{fill:#D32D25;}
	.st16{fill:#78574D;}
	.st17{fill:#562D20;}
</style>
<title>shannon</title>
<path class="st0" d="M104.8,209.1c-57.6,0-104.3-46.7-104.3-104.3S47.2,0.5,104.8,0.5s104.3,46.7,104.3,104.3l0,0
	C209,162.4,162.4,209.1,104.8,209.1z"/>
<path class="st1" d="M77.2,105.7c0,0-0.5,3.3-3.8,7.4c-3.2,4.1-11.1,14.2-7,18.9c0,0,2.8,7.4,8.9,11.7c0,0,3.5,11.3-2.3,13.7
	c0,0,9.9,12.2,8.1,18.2c-1.8,6,0.2,8.4,0.2,8.4s-0.7-5.3,1.6-7.3c0,0,0.7,0.3,0,4.1c0,0,16.4-23.3,16.7-31.9s-10.8-28-10.8-28
	l-9.1-15L77.2,105.7z"/>
<path class="st2" d="M71.5,133.7c0,0-25-4.3-7.9,61.2c0,0,43.1,24.2,92.5-6.3c0,0,4.9-63.4-30.5-51.9c0,0-14.1,24.4-25.5,18.6
	S71.5,133.7,71.5,133.7z"/>
<circle class="st3" cx="104.8" cy="104.8" r="98.6"/>
<path class="st4" d="M95.2,204.2c-0.4,0-0.8,0-1,0c0.3,0,0.7,0,1.2,0.1C95.3,204.3,95.3,204.2,95.2,204.2z"/>
<path class="st4" d="M104.9,204.5L104.9,204.5C105.3,204.5,105.2,204.5,104.9,204.5z"/>
<path class="st4" d="M99,204.5c0,0,0.7,0,1.3,0h1.3h1h-1.8c-0.5,0-0.9,0-1.2,0H99z"/>
<path class="st4" d="M189.9,153.8c-0.1,0.3-0.2,0.5-0.3,0.7C189.8,154.2,189.8,154,189.9,153.8z"/>
<path class="st4" d="M199.5,76.5c-0.1-0.4-0.2-0.8-0.4-1.4S199.2,75.4,199.5,76.5z"/>
<path class="st4" d="M186.7,159.4L186.7,159.4L186.7,159.4z"/>
<path class="st4" d="M194.8,63l-0.2,0.1C194.8,63.2,194.9,63.2,194.8,63z"/>
<path class="st4" d="M172.3,31.8l0.6,0.6C172.7,32.2,172.5,32,172.3,31.8z"/>
<path class="st4" d="M126.7,8.3l-1.1-0.4l-0.8-0.3l-0.3-0.1l0.2,0.3C125.3,7.9,126,8,126.7,8.3z"/>
<path class="st4" d="M124.7,7.8c-0.5-0.1-0.9-0.1-1.3-0.1C123.8,7.7,124.2,7.8,124.7,7.8L124.7,7.8z"/>
<path class="st4" d="M77.2,9.8c-0.8,0.2-1.6,0.4-2.4,0.7C75.6,10.4,76.5,10.1,77.2,9.8z"/>
<path class="st4" d="M74.8,10.7l0.6-0.1c0.3-0.1,0.6-0.1,0.6-0.1l0.1-0.1l-0.6,0.2L74.8,10.7z"/>
<path class="st4" d="M36.2,70.8L36.2,70.8C36.3,71,36.3,70.9,36.2,70.8z"/>
<image style="display:none;overflow:visible;enable-background:new    ;" width="1010" height="1010" xlink:href="../../../Downloads/43275577_2058061967590500_8426357107514671104_o.jpg"  transform="matrix(0.1657 0 0 0.1657 16.7588 22.22)">
</image>
<image style="display:none;overflow:visible;opacity:0.64;" width="1152" height="1008" xlink:href="../../Screen Shot 2019-02-03 at 12.00.15 PM.png"  transform="matrix(0.1687 0 0 0.1687 11.172 14.6478)">
</image>
<path class="st5" d="M88.8,121l-0.9,16.1l-16.3-3.4c0,0,12.5,22,27.5,24c14.9,2.1,25.6-16.5,26.6-21l-13.1-3l-0.4-5.8
	c0,0,16.7-15.4,16.7-26.1s-3.8-29.3-14.8-24.4L89.2,65.1c0,0-7.6,14.6-13.8,22.5c0,0-4.7,0.2-3.8,7.3c0.9,7.1,3,11.3,8.2,11.1
	C79.7,106,81.1,118,88.8,121z"/>
<path class="st5" d="M113.5,58.3c0,0-34.4-16.9-38.2,29.3l24.7-17.1l13.9,6.9c0,0,15,8.2,14.8,24.4
	C128.8,101.8,130.8,57.1,113.5,58.3z"/>
<circle class="st6" cx="91.9" cy="91.9" r="3.4"/>
<circle class="st6" cx="119.6" cy="91.3" r="3"/>
<circle class="st7" cx="90.3" cy="105.2" r="8.3"/>
<circle class="st7" cx="119.6" cy="104.8" r="8.3"/>
<path d="M81.6,91c0,0,1,0.9,2,0.8c1,0-0.4-1.7-0.4-1.7l1.3,0.4c0,0,4.1-6.1,12.3-0.8c0,0-8.2-2.3-13,3.1C83.8,92.8,82,92.8,81.6,91z
	"/>
<path d="M83.9,93.6l1.4-1c0,0,2.6,1.9,5.4,2.9c0,0-4.1-0.3-5.2-1.7C85.5,93.7,85,94.2,83.9,93.6z"/>
<path d="M130.2,90.5c0,0-1,0.9-2,0.8s0.4-1.7,0.4-1.7l-1.3,0.4c0,0-4.1-6.1-12.3-0.8c0,0,8.2-2.3,13,3.1
	C127.9,92.2,129.8,92.3,130.2,90.5z"/>
<path d="M127.9,93.1l-1.4-1c0,0-2.6,1.9-5.4,2.9c0,0,4.1-0.3,5.2-1.7C126.3,93.2,126.8,93.6,127.9,93.1z"/>
<circle class="st8" cx="77.5" cy="103.4" r="1.2"/>
<path class="st1" d="M107.7,93.6c0,0-0.8,11.4,1.1,14.4C108.8,108,108.4,106.2,107.7,93.6z"/>
<path class="st1" d="M103.9,108c0,0,0.3,2.6,3.3,2.6s3.3-2.2,3.3-2.2S106.7,108.9,103.9,108z"/>
<path class="st1" d="M76.1,96c0,0-2.3,1.9,0.2,5.7C76.4,101.8,75.3,98.7,76.1,96z"/>
<path class="st9" d="M74.5,100.8c0,0-0.8-4.7,0-5.2c0.8-0.5,2.5-1.9,1.9-3.8s-2.5-2.3-3.5-0.7C71.9,92.9,72.6,98.3,74.5,100.8z"/>
<path class="st10" d="M79.2,83.8c0,0,1.2-3.1,5.7-2.1s15.3,1.9,15.8,1c0.5-1-0.2-4.1-9.5-4.5S80.2,80.2,79.2,83.8z"/>
<path class="st10" d="M130.4,83.4c0,0-1.2-3.1-5.7-2.1c-4.5,1-15.3,1.9-15.8,1c-0.5-1,0.2-4.1,9.5-4.5
	C127.7,77.5,129.4,79.8,130.4,83.4z"/>
<ellipse class="st11" cx="89.5" cy="92.3" rx="9.3" ry="9.9"/>
<ellipse class="st11" cx="122.6" cy="91.5" rx="9.3" ry="9.9"/>
<path class="st12" d="M113.5,108c0,0,3,5.2,9.1,3.5c6-1.7,3.2-10.7,3.2-10.7S127.4,117.7,113.5,108z"/>
<path class="st13" d="M89.6,80.2c-6.3,0-11.4,5.4-11.4,12.1c0,6.7,5.1,12.1,11.4,12.1S101,99,101,92.3C101,85.6,95.9,80.2,89.6,80.2
	z M89.5,102.2c-5.2,0-9.3-4.4-9.3-9.9s4.2-9.9,9.3-9.9c5.2,0,9.3,4.4,9.3,9.9S94.7,102.2,89.5,102.2z"/>
<path class="st13" d="M122.6,79.4c-6.3,0-11.4,5.4-11.4,12.1c0,6.7,5.1,12.1,11.4,12.1S134,98.1,134,91.5
	C134,84.8,128.9,79.4,122.6,79.4z M122.6,101.3c-5.1,0-9.3-4.4-9.3-9.9c0-5.5,4.2-9.9,9.3-9.9c5.2,0,9.3,4.4,9.3,9.9
	C131.9,96.9,127.8,101.3,122.6,101.3z"/>
<path class="st13" d="M100.2,91.1c0,0,4.8-3.5,11.9-0.7l-0.2,2.2c0,0-5.3-2.8-11.4,0.7L100.2,91.1z"/>
<polygon class="st13" points="75.3,87.6 78.7,92 79.6,89.4 75.8,85.7 "/>
<path class="st14" d="M98.3,113.9c0,0,0.5,1.5,2.1,1.6c0,0,3.6,5.2,10,2.9c0,0,1.9-0.5,3.3-3.1l0.3-0.8c0,0,0.6,0.5,2.1-1
	c0,0-3.5,1-6-0.3c-2.5-1.3-2.5,0.6-2.5,0.6s0.2-3.6-6.2,0.7C101.3,114.5,100.7,115.4,98.3,113.9z"/>
<path class="st15" d="M107.8,115.2c0,0,0-1.6-1-1.5s-4.2,1.4-5.5,1.5c-0.1,0-0.1,0-0.1,0c0.8,0.3,1.8,0.2,2.6,0.3
	c1.1,0.1,2.6,0.1,3.5,0.6c0.4,0.2,0.5,0.3,0.9-0.1c0.3-0.3,0.6-0.6,1.1-0.8c0.6-0.2,1.2-0.2,1.8-0.2c0.8-0.1,1.6-0.1,2.3-0.1
	c0,0-3.1-0.9-3.9-1.3C108.8,113.2,107.7,114.1,107.8,115.2z"/>
<path class="st15" d="M101.1,115.2c0,0,2.7,3.9,6.8,3.6c4.1-0.2,5.6-4,5.6-4l-4.1-0.3l-1.6,0.7l-1.7-0.3L101.1,115.2z"/>
<circle class="st16" cx="91.9" cy="91.9" r="3.1"/>
<circle class="st16" cx="119.6" cy="91.3" r="2.6"/>
<circle class="st17" cx="91.9" cy="91.9" r="1.2"/>
<circle class="st17" cx="119.6" cy="91.3" r="1.2"/>
<path class="st9" d="M97,115.1c0,0,0-1.7,0.9-2.2c0,0-2.6-1.1-3.2,1.4c0,0,0.6-0.8,1.6-0.8C96.4,113.5,95.8,114.2,97,115.1z"/>
<polygon class="st1" points="88.8,121 84.3,131.5 88,134.2 "/>
<path class="st1" d="M113.5,58.3c0,0-28.4,22.1-38.3,26.4c0,0,0.5-13.2,7.4-22C88,55.7,97.4,51.4,113.5,58.3z"/>
<path class="st1" d="M84.3,50.2c0,0-15.1-5.6-14,19.5l2.9,18.7l2.1-0.9l0.8-3.4c0,0,18.9-8.8,37.3-25.9c0,0,11.1-2.4,14.1,21
	l1.3,12.7c0,0,8.5-6.3,7.2-19.3c0,0,2.1-2.1-0.4-9.4S121.9,39,105.1,39.8S84.3,50.2,84.3,50.2z"/>
<image style="display:none;overflow:visible;opacity:0.57;" width="572" height="880" xlink:href="../../Screen Shot 2019-02-03 at 2.21.56 PM.png"  transform="matrix(0.1632 0 0 0.1632 53.4619 35.0685)">
</image>
<path class="st12" d="M83,107c0,0,5.1,10.2,13.4,1.7C96.4,108.7,89.3,115.2,83,107z"/>
<image style="display:none;overflow:visible;opacity:0.13;" width="1294" height="586" xlink:href="../../Screen Shot 2019-02-03 at 2.29.13 PM.png"  transform="matrix(0.1331 0 0 0.1331 25.9724 137.7507)">
</image>
<path class="st2" d="M37.5,166.7c0,0,1.8,20.4,26.1,28.2C63.6,194.9,43.9,187.5,37.5,166.7z"/>
<path class="st2" d="M37.5,166.7c0,0-0.5-5.3,3.2-5.9C40.7,160.7,42.3,164.8,37.5,166.7z"/>
<path class="st2" d="M39.5,172.9c0,0-1.2-4.8,3.3-7.1C42.8,165.8,44.7,170.1,39.5,172.9z"/>
<path class="st2" d="M44.2,177.8c0,0-2.5-3.4,0.7-6.6C44.9,171.2,48.1,174.9,44.2,177.8z"/>
<path class="st2" d="M47.8,182.2c0,0-2.9-4.7,1.5-8.7C49.3,173.5,52.7,178.4,47.8,182.2z"/>
<path class="st2" d="M34.6,176.7c0,0,1.3,3.7,7.1,2.2C41.6,179,39.2,175.4,34.6,176.7z"/>
<path class="st2" d="M40.5,184.8c0,0,2.3,2.9,7.7,2.9C48.3,187.6,46.3,183.6,40.5,184.8z"/>
<path class="st2" d="M37.1,161.5c0,0-2.8-1.7-1.9-4.4C35.2,157.1,37.6,157.9,37.1,161.5z"/>
<path class="st2" d="M33.4,162.7c0,0,0,3.5,3.5,4C36.9,166.7,36.7,162.7,33.4,162.7z"/>
<path class="st2" d="M30.9,169.3c0,0,2.5,3.7,7.2,3.1C38.1,172.5,38.3,166.9,30.9,169.3z"/>
<path class="st0" d="M31.6,169.5c0,0,2.1,2.5,5.8,2.4C37.5,171.9,36.8,168.5,31.6,169.5z"/>
<path class="st2" d="M53.1,187.6c0,0-4-7.1,2.1-10.9C55.2,176.7,60.5,183.5,53.1,187.6z"/>
<path class="st0" d="M53.3,186.4c0,0-2.1-6,1.6-8.3C54.9,178.1,57.3,183.7,53.3,186.4z"/>
<path class="st2" d="M179.8,157.4c0,0,0.2,20.5-23.3,30.6C156.5,188,175.3,178.7,179.8,157.4z"/>
<path class="st2" d="M179.8,157.4c0,0,0-5.3-3.8-5.6C176,151.8,174.8,156,179.8,157.4z"/>
<path class="st2" d="M178.3,163.8c0,0,0.8-4.9-3.9-6.8C174.4,157,172.9,161.6,178.3,163.8z"/>
<path class="st2" d="M174.1,169.2c0,0,2.1-3.6-1.4-6.5C172.8,162.7,170,166.7,174.1,169.2z"/>
<path class="st2" d="M171,173.9c0,0,2.4-4.9-2.3-8.5C168.7,165.4,165.8,170.5,171,173.9z"/>
<path class="st2" d="M183.6,167.2c0,0-0.9,3.8-6.8,2.9C176.8,170.1,178.9,166.3,183.6,167.2z"/>
<path class="st2" d="M178.5,175.7c0,0-2,3.2-7.4,3.6C171.1,179.3,172.6,175.1,178.5,175.7z"/>
<path class="st2" d="M179.7,152.2c0,0,2.6-2,1.5-4.6C181.1,147.6,178.8,148.7,179.7,152.2z"/>
<path class="st2" d="M183.4,153.1c0,0,0.3,3.5-3.1,4.3C180.3,157.4,180.1,153.4,183.4,153.1z"/>
<path class="st2" d="M186.5,159.4c0,0-2.2,3.9-6.8,3.8C179.7,163.3,179,157.7,186.5,159.4z"/>
<path class="st0" d="M185.8,159.7c0,0-1.9,2.7-5.6,3C180.3,162.7,180.6,159.1,185.8,159.7z"/>
<path class="st2" d="M166.3,179.8c0,0,3.3-7.5-3.2-10.7C163.1,169.1,158.5,176.4,166.3,179.8z"/>
<path class="st0" d="M165.9,178.6c0,0,1.5-6.2-2.4-8.1C163.5,170.5,161.6,176.3,165.9,178.6z"/>
</svg>
