<?xml version="1.0" encoding="utf-8"?>
<!-- Generator: Adobe Illustrator 23.0.1, SVG Export Plug-In . SVG Version: 6.00 Build 0)  -->
<svg version="1.1" id="Layer_1" xmlns="http://www.w3.org/2000/svg" xmlns:xlink="http://www.w3.org/1999/xlink" x="0px" y="0px"
	 viewBox="0 0 209.6 209.6" style="enable-background:new 0 0 209.6 209.6;" xml:space="preserve">
<style type="text/css">
	.st0{fill:#09D1CB;}
	.st1{display:none;opacity:0.64;fill:#1F252E;}
	.st2{fill:#4C47BD;}
	.st3{fill:#1F252E;}
	.st4{fill:#D88A5C;}
	.st5{fill:#E8A573;}
	.st6{fill:#5E351A;}
	.st7{fill:#161616;}
	.st8{fill:#FFFEFA;}
	.st9{fill:#815E49;}
	.st10{fill:#383838;}
	.st11{fill:#63371D;}
	.st12{fill:#D32D25;}
	.st13{fill:#020004;}
</style>
<title>shannon</title>
<path class="st0" d="M104.8,209.1c-57.6,0-104.3-46.7-104.3-104.3S47.2,0.5,104.8,0.5s104.3,46.7,104.3,104.3l0,0
	C209,162.4,162.4,209.1,104.8,209.1z"/>
<circle class="st1" cx="104.8" cy="104.8" r="98.6"/>
<path class="st2" d="M-107.2,10.4c-0.5,0-0.9,0-1.1,0c0.3,0,0.8,0,1.4,0.1C-107.1,10.5-107.1,10.4-107.2,10.4z"/>
<path class="st2" d="M-96.1,10.7L-96.1,10.7C-95.7,10.7-95.8,10.7-96.1,10.7z"/>
<path class="st2" d="M-102.9,10.7c0,0,0.8,0,1.5,0h1.5h1.1h-2.1c-0.6,0-1,0-1.4,0H-102.9z"/>
<path class="st2" d="M1-47.2c-0.1,0.3-0.2,0.6-0.3,0.8C0.9-46.8,0.9-47,1-47.2z"/>
<path class="st2" d="M12-135.6c-0.1-0.5-0.2-0.9-0.5-1.6S11.6-136.8,12-135.6z"/>
<path class="st2" d="M196,132.5L196,132.5L196,132.5z"/>
<path class="st2" d="M6.6-151l-0.2,0.1C6.6-150.8,6.7-150.8,6.6-151z"/>
<path class="st2" d="M-28.3-167.3l0.6,0.6C-27.9-166.9-28.1-167.1-28.3-167.3z"/>
<path class="st2" d="M126.7,8.3l-1.1-0.4l-0.8-0.3l-0.3-0.1l0.2,0.3C125.3,7.9,126,8,126.7,8.3z"/>
<path class="st2" d="M124.7,7.8c-0.5-0.1-0.9-0.1-1.3-0.1C123.8,7.7,124.2,7.8,124.7,7.8L124.7,7.8z"/>
<path class="st2" d="M77.2,9.8c-0.8,0.2-1.6,0.4-2.4,0.7C75.6,10.4,76.5,10.1,77.2,9.8z"/>
<path class="st2" d="M74.8,10.7l0.6-0.1c0.3-0.1,0.6-0.1,0.6-0.1l0.1-0.1l-0.6,0.2L74.8,10.7z"/>
<path class="st2" d="M-174.7-142.1L-174.7-142.1C-174.5-141.9-174.5-142-174.7-142.1z"/>
<image style="display:none;overflow:visible;enable-background:new    ;" width="1010" height="1010" xlink:href="../../../Downloads/43275577_2058061967590500_8426357107514671104_o.jpg"  transform="matrix(0.1657 0 0 0.1657 16.7588 22.22)">
</image>
<image style="display:none;overflow:visible;opacity:0.64;" width="1152" height="1008" xlink:href="../../Screen Shot 2019-02-03 at 12.00.15 PM.png"  transform="matrix(0.1687 0 0 0.1687 11.172 14.6478)">
</image>
<image style="display:none;overflow:visible;opacity:0.57;" width="572" height="880" xlink:href="../../Screen Shot 2019-02-03 at 2.21.56 PM.png"  transform="matrix(0.1632 0 0 0.1632 53.4619 35.0685)">
</image>
<image style="display:none;overflow:visible;opacity:0.13;" width="1294" height="586" xlink:href="../../Screen Shot 2019-02-03 at 2.29.13 PM.png"  transform="matrix(0.1331 0 0 0.1331 25.9724 137.7507)">
</image>
<path class="st3" d="M25.5,140.9c0,0,2,23.3,29.8,32.2C55.4,173.1,32.9,164.6,25.5,140.9z"/>
<path class="st3" d="M25.5,140.9c0,0-0.6-6,3.7-6.8C29.2,134.1,31,138.7,25.5,140.9z"/>
<path class="st3" d="M27.9,148c0,0-1.4-5.5,3.7-8.1C31.6,139.8,33.7,144.8,27.9,148z"/>
<path class="st4" d="M75.6,154.3L73,192.4c0,0,35.6,10.7,60.8-0.9l1.9-64.8L75.6,154.3z"/>
<path class="st3" d="M33.2,153.6c0,0-2.8-3.9,0.8-7.5C34,146.1,37.6,150.3,33.2,153.6z"/>
<path class="st3" d="M37.3,158.6c0,0-3.3-5.3,1.7-10C39,148.7,42.9,154.2,37.3,158.6z"/>
<path class="st3" d="M22.2,152.4c0,0,1.5,4.2,8.1,2.6C30.2,154.9,27.4,150.8,22.2,152.4z"/>
<path class="st3" d="M29,161.5c0,0,2.6,3.4,8.8,3.3C37.8,164.8,35.6,160.2,29,161.5z"/>
<path class="st3" d="M25,134.9c0,0-3.2-2-2.2-5.1C22.9,129.9,25.6,130.8,25,134.9z"/>
<path class="st3" d="M20.8,136.3c0,0,0,4,4,4.5C24.8,140.9,24.6,136.3,20.8,136.3z"/>
<path class="st3" d="M18,143.9c0,0,2.9,4.2,8.2,3.6C26.2,147.5,26.4,141.1,18,143.9z"/>
<path class="st0" d="M18.8,144.1c0,0,2.4,2.9,6.6,2.8C25.5,146.9,24.7,142.9,18.8,144.1z"/>
<path class="st3" d="M43.3,164.8c0,0-4.5-8.2,2.4-12.5C45.8,152.4,51.8,160.1,43.3,164.8z"/>
<path class="st0" d="M43.6,163.4c0,0-2.4-6.9,1.9-9.5C45.4,154,48.2,160.3,43.6,163.4z"/>
<path class="st3" d="M188.1,130.3c0,0,0.2,23.4-26.6,35C161.5,165.3,183.1,154.6,188.1,130.3z"/>
<path class="st3" d="M188.1,130.3c0,0,0-6-4.3-6.4C183.8,123.9,182.4,128.6,188.1,130.3z"/>
<path class="st3" d="M186.5,137.6c0,0,0.9-5.6-4.5-7.7C182,129.8,180.3,135,186.5,137.6z"/>
<path class="st3" d="M181.7,143.7c0,0,2.4-4.1-1.6-7.4C180.1,136.3,177,140.8,181.7,143.7z"/>
<path class="st5" d="M101.7,38.5l-46,37.4c0,0,4.2,7.3,3.6,8.1c-0.6,0.8-4.5,7-2.8,8.6c0,0-2.5,9.8-1.9,15.3
	c0.7,5.4,2.6,20.3,8.4,30.3c2.1,4.3,4.8,8.5,8,12c0.8,0.9,1.7,1.8,2.6,2.6c4.9,4.1,10.7,7.4,17.3,7.2c0,0,8.6,0.6,20.1-7.4
	s18.3-13.4,27.4-31.9c0,0,5.1,3.2,11.5-7c0,0,7.2-7.2,8-9.3s4.3-14.8-3-16.4l-7.2-7.9l-19.6-14.9L101.7,38.5z"/>
<path class="st3" d="M178.1,149.1c0,0,2.8-5.6-2.6-9.8C175.4,139.4,172.1,145.3,178.1,149.1z"/>
<path class="st3" d="M192.5,141.4c0,0-1.1,4.3-7.8,3.3C184.7,144.7,187.1,140.4,192.5,141.4z"/>
<path class="st3" d="M186.6,151.2c0,0-2.3,3.6-8.5,4.1C178.2,155.3,179.9,150.5,186.6,151.2z"/>
<path class="st3" d="M188,124.3c0,0,3-2.3,1.7-5.2C189.7,119.1,187,120.3,188,124.3z"/>
<path class="st3" d="M192.3,125.3c0,0,0.4,4-3.5,4.9C188.8,130.2,188.5,125.7,192.3,125.3z"/>
<path class="st3" d="M195.8,132.6c0,0-2.5,4.5-7.8,4.4C188,136.9,187.2,130.6,195.8,132.6z"/>
<path class="st0" d="M195.1,132.9c0,0-2.1,3.1-6.4,3.4C188.7,136.3,189.1,132.2,195.1,132.9z"/>
<path class="st3" d="M172.7,155.9c0,0,3.7-8.6-3.6-12.2C169.1,143.7,163.8,152,172.7,155.9z"/>
<path class="st0" d="M172.3,154.5c0,0,1.7-7.1-2.8-9.3C169.5,145.2,167.4,151.8,172.3,154.5z"/>
<image style="display:none;overflow:visible;" width="1508" height="1710" xlink:href="../../Screen Shot 2019-02-03 at 8.40.40 AM.png"  transform="matrix(8.606411e-02 0 0 8.606411e-02 39.9077 31.2152)">
</image>
<path class="st6" d="M57.6,79.3l1.7,4.6h18.2c0,0,0.6-4.7-1.9-6.1C73.2,76.5,57.6,79.3,57.6,79.3z"/>
<path class="st7" d="M66.7,75.9c-8.4,0-15.3,7.2-15.3,16.2c0,8.9,6.8,16.2,15.3,16.2S82,101,82,92.1C82,83.1,75.1,75.9,66.7,75.9z
	 M66.7,105.3c-6.9,0-12.5-5.9-12.5-13.2c0-7.3,5.6-13.2,12.5-13.2c6.9,0,12.5,5.9,12.5,13.2C79.2,99.4,73.6,105.3,66.7,105.3z"/>
<path class="st8" d="M59.3,92.6c0,0,3.5,5.7,8.7,5.3c5.2-0.4,7.6-4.1,7.6-4.1S69.5,87,59.3,92.6z"/>
<path class="st8" d="M101.7,93.7c0,0,2.3,4.2,8.1,4.5s9.5-6.2,9.5-6.2S108.6,86.5,101.7,93.7z"/>
<circle class="st9" cx="109.5" cy="93.4" r="3.6"/>
<circle class="st9" cx="67.5" cy="92.9" r="3.6"/>
<path class="st10" d="M143.6,115.9c-1.7,0-3.1,1.4-3.1,3.1c0,1.7,1.4,3.1,3.1,3.1c1.7,0,3.1-1.4,3.1-3.1
	C146.7,117.3,145.3,115.9,143.6,115.9z M143.6,121.2c-1.2,0-2.3-1-2.3-2.3s1-2.3,2.3-2.3s2.3,1,2.3,2.3S144.8,121.2,143.6,121.2z"/>
<path class="st10" d="M150,111.4c-1.7,0-3.1,1.4-3.1,3.1c0,1.7,1.4,3.1,3.1,3.1c1.7,0,3.1-1.4,3.1-3.1
	C153.1,112.8,151.7,111.4,150,111.4z M150,116.7c-1.2,0-2.3-1-2.3-2.3s1-2.3,2.3-2.3s2.3,1,2.3,2.3S151.3,116.7,150,116.7z"/>
<path class="st11" d="M55.8,75.9l46-37.4c0,0,25.7,44.4,39.7,53.2l2.7,0.3c0,0,3.9-5.9,10.8-4.1c0,0,0.6-6.4,0.6-6.8
	c0.2-5.6-0.2-11.2-1.3-16.7c-4.8-24.2-26.8-47.2-52.8-45.5c-10.6,0.7-20.4,6-28.8,12.2C58.2,41.8,51.9,58.2,55.8,75.9z"/>
<path class="st11" d="M138.5,120.6l-2.8,6.1l-1.9,64.8c0,0,23.3-42.8,21.9-55.5l-10.3-17.4C145.5,118.7,143.2,122,138.5,120.6z"/>
<path class="st4" d="M84.8,95c0,0-8.8,15.7-7,18.3c1.8,2.5,7.6,1.2,7.6,1.2s4.7,4.7,9,1.4C98.5,112.6,94.1,101.2,84.8,95z"/>
<circle class="st8" cx="91" cy="108.7" r="0.9"/>
<path class="st12" d="M85.3,127.9c0,0-2.1-3-5.9-0.8c-3.8,2.2-4.3,4.1-3.5,4.8c0.8,0.8,2,2.3,2.3,3.8c0.3,1.5,0.7,5.2,3.8,6.3
	c3.2,1.1,11.1,3.5,20.8-7.9C102.8,134.2,91.4,121.9,85.3,127.9z"/>
<path class="st6" d="M98.2,80.4v5.7c0,0,18.9-6,21-5.7c2.1,0.3,12.7,5.7,12.7,5.7s-10.1-9.8-14.6-10.9S98.2,80.4,98.2,80.4z"/>
<path class="st13" d="M55.1,90.3c0,0,0.4,2,1.4,2.2c1,0.3,2.8,0,2.8,0s8.9-5.5,16.3,1.1c0,0,1.9-0.2,1.2-1.8
	c-0.5-1.3-2.6-2.2-3.8-2.7c-2-0.9-4.2-1.5-6.5-1.4c-1.1,0-2.3,0.2-3.3,0.6c-1.1,0.4-2.1,1.1-3.2,1.6C58.7,90.7,56.4,91.6,55.1,90.3z
	"/>
<path class="st13" d="M101.7,93.7c0,0,8-6,16.9-0.8c0,0,2.9,0.9,4.3-2.6l-1.5,1c0,0-13.1-7.7-20.6,0.7
	C100.8,92.1,100.1,93.6,101.7,93.7z"/>
<rect x="80.6" y="87.8" class="st7" width="17.1" height="3.1"/>
<polygon class="st7" points="124.7,87.8 141.3,87.8 141.3,90.8 125.3,90.8 "/>
<path class="st7" d="M112.2,76.4c-8.4,0-15.3,7.2-15.3,16.2c0,8.9,6.8,16.2,15.3,16.2s15.3-7.2,15.3-16.2
	C127.5,83.6,120.7,76.4,112.2,76.4z M112.2,105.8c-6.9,0-12.5-5.9-12.5-13.2c0-7.3,5.6-13.2,12.5-13.2c6.9,0,12.5,5.9,12.5,13.2
	C124.7,99.9,119.1,105.8,112.2,105.8z"/>
</svg>
